<svg viewBox="0 0 264 280" xmlns="http://www.w3.org/2000/svg" xmlns:xlink="http://www.w3.org/1999/xlink"><defs><circle id="shared-path-1" cx="120" cy="120" r="120"/><path id="shared-path-2" d="M12 160c0 66.274 53.726 120 120 120s120-53.726 120-120h12V0H0v160z"/><path id="shared-path-3" d="M124 144.611V163h4c39.765 0 72 32.235 72 72v9H0v-9c0-39.765 32.235-72 72-72h4v-18.389c-17.237-8.189-29.628-24.924-31.695-44.73C38.48 99.058 34 94.052 34 88V74c0-5.946 4.325-10.882 10-11.834V56c0-30.928 25.072-56 56-56s56 25.072 56 56v6.166c5.675.952 10 5.888 10 11.834v14c0 6.052-4.48 11.058-10.305 11.881-2.067 19.806-14.458 36.541-31.695 44.73"/>
</defs><g id="Avataaar" stroke="none" stroke-width="1" fill="none" fill-rule="evenodd"><g transform="translate(0, 0)"><g transform="translate(12, 40)"><mask id="mask-bg" fill="white"><use xlink:href="#shared-path-1"/></mask><use fill="#E6E6E6" xlink:href="#shared-path-1"/><g mask="url(#mask-bg)" fill="#65C9FF"><rect x="0" y="0" width="240" height="240"/></g></g><mask id="mask-clip" fill="white"><use xlink:href="#shared-path-2"/></mask><g mask="url(#mask-clip)"><g id="Body" transform="translate(32 36)"><defs><path id="body-path-3" d="M124 144.611V163h4c39.765 0 72 32.235 72 72v9H0v-9c0-39.765 32.235-72 72-72h4v-18.389c-17.237-8.189-29.628-24.924-31.695-44.73C38.48 99.058 34 94.052 34 88V74c0-5.946 4.325-10.882 10-11.834V56c0-30.928 25.072-56 56-56s56 25.072 56 56v6.166c5.675.952 10 5.888 10 11.834v14c0 6.052-4.48 11.058-10.305 11.881-2.067 19.806-14.458 36.541-31.695 44.73"/></defs><mask id="body-mask-6" fill="#fff"><use xlink:href="#body-path-3"/></mask><use xlink:href="#body-path-3" fill="#d0c6ac"/><g id="Skin/👶🏽-03-Brown" fill="#EDB98A" mask="url(#body-mask-6)"><path id="Color" d="M0 0h264v280H0z"/></g><path id="Neck-Shadow" fill="#000" fill-opacity=".1" d="M156 79v23c0 30.928-25.072 56-56 56s-56-25.072-56-56V79v15c0 30.928 25.072 56 56 56s56-25.072 56-56z" mask="url(#body-mask-6)"/></g>
<g id="Clothing/Shirt-Crew-Neck" transform="translate(0 170)"><defs><path id="clotheShirtCrewNeck-path-541" d="M165.96 29.295c36.976 3.03 66.04 34 66.04 71.757V110H32v-8.948c0-38.1 29.592-69.287 67.045-71.832Q99 29.78 99 30.348c0 11.863 14.998 21.48 33.5 21.48S166 42.21 166 30.348q0-.53-.04-1.053"/></defs><mask id="clotheShirtCrewNeck-mask-542" fill="#fff"><use xlink:href="#clotheShirtCrewNeck-path-541"/></mask><use xlink:href="#clotheShirtCrewNeck-path-541" id="Clothes" fill="#e6e6e6" fill-rule="evenodd"/><g id="Color/Palette/Gray-01" fill="#FFFFB1" fill-rule="evenodd" mask="url(#clotheShirtCrewNeck-mask-542)"><path id="🖍Color" d="M0 0h264v110H0z"/></g><g id="Shadowy" fill="#000" fill-opacity=".16" fill-rule="evenodd" stroke-width="1" mask="url(#clotheShirtCrewNeck-mask-542)" opacity=".6"><ellipse id="Hola-👋🏼" cx="40.5" cy="27.848" rx="39.635" ry="26.914" transform="translate(92 4)"/></g></g>
<g transform="translate(76, 82)" fill="#000000"><g id="Mouth/Default" fill-opacity=".7" transform="translate(2 52)"><path id="Mouth" d="M40 15c0 7.732 6.268 14 14 14s14-6.268 14-14"/></g>
<g id="Nose/Default" fill-opacity=".16" transform="translate(28 40)"><path id="Nose" d="M16 8c0 4.418 5.373 8 12 8s12-3.582 12-8"/></g>
<g id="Eyes/Default-😀" fill-opacity=".6" transform="translate(0 8)"><circle id="Eye" cx="30" cy="22" r="6"/><circle id="Eye" cx="82" cy="22" r="6"/></g>
<g id="Eyebrow/Natural/Sad-Concerned-Natural" fill-opacity=".6"><path id="Eyebrow" d="m22.766 5.578.911-.402c5.242-2.081 13.188-1.209 18.046 1.123.567.272.18 1.153-.402 1.108-14.919-1.151-24.963 8.146-28.375 14.44-.101.187-.407.208-.482.034-2.308-5.319 4.45-13.985 10.302-16.303" transform="matrix(-1 0 0 -1 54 26)"/><path id="Eyebrow" d="m80.766 5.578.911-.402c5.242-2.081 13.188-1.209 18.046 1.123.567.272.18 1.153-.402 1.108-14.919-1.151-24.963 8.146-28.375 14.44-.101.187-.407.208-.482.034-2.308-5.319 4.45-13.985 10.302-16.303" transform="matrix(1 0 0 -1 0 26)"/></g>
</g><g id="Top" fill-rule="evenodd" stroke-width="1"><defs><path id="topLongHairStraight2-path-1004" d="M0 0h264v280H0z"/><path id="topLongHairStraight2-path-1005" d="M21 157.54V69.047c0-3.532.398-6.971 1.152-10.275C25.205 38.731 36.775 22.811 50 13c19.905-14.76 53.442-19.018 65.047-1.478C123.698 7.681 136.52 11.182 146 20c9.565 9.415 17.2 30.197 12.657 47.204q.158 1.898.158 3.837v21.851A12.01 12.01 0 0 0 149 83.166V83c-6.036-21.536-23.77-31.42-34.57-41.223C97.535 60.673 44.823 60.74 27 98v10c0 6.019 4.43 11.002 10.209 11.867 1.743 20.248 14.26 37.416 31.791 45.744V166c2.93 43.855-6.642 98.797-69 82 13.606-7.962 20.808-58.944 21-90.46m96 8.071c17.53-8.328 30.048-25.496 31.791-45.744a12.01 12.01 0 0 0 10.024-9.76v1.363a100 100 0 0 0 10.963 45.524l26.949 52.707c6.963 13.619 4.919 29.473-3.936 40.768C189.966 213.289 158.903 184 121 184h-4z"/><path id="topLongHairStraight2-path-1006" d="M65.18 77.737c2.183-1.632 15.227-2.258 17.578-3.648.734-.434 1.303-.873 1.742-1.309.439.436 1.009.875 1.742 1.31 2.351 1.389 15.395 2.015 17.578 3.647 2.21 1.654 3.824 5.448 3.647 8.414-.212 3.56-4.106 12.052-13.795 13.03-2.114-2.353-5.435-3.87-9.172-3.87s-7.058 1.517-9.172 3.87c-9.69-.978-13.583-9.47-13.795-13.03-.176-2.966 1.437-6.76 3.647-8.414m.665 17.164.017.007zm79.018-38.916c-.389-5.955-1.585-11.833-2.629-17.699-.281-1.579-1.81-12.286-2.5-12.286-.232 9.11-1.032 18.08-2.064 27.14-.309 2.708-.632 5.416-.845 8.134-.171 2.196.135 4.848-.397 6.972-.679 2.706-4.08 5.232-6.725 6.165-6.6 2.326-12.105-7.303-17.742-10.12-7.318-3.656-19.897-4.527-27.38.239-7.645-4.766-20.224-3.895-27.542-.239-5.637 2.817-11.142 12.446-17.742 10.12-2.645-.933-6.047-3.459-6.725-6.165-.532-2.124-.226-4.776-.397-6.972-.213-2.718-.536-5.426-.845-8.135C30.298 44.08 29.497 35.11 29.265 26c-.689 0-2.218 10.707-2.5 12.286-1.043 5.866-2.24 11.744-2.627 17.7-.4 6.119.077 12.181 1.332 18.177.599 2.865 1.299 5.713 2.049 8.541.834 3.143-.32 9.262.053 12.488.707 6.104 3.582 18.008 6.811 23.259 1.561 2.538 3.39 4.123 5.433 6.168 1.967 1.97 2.788 5.021 4.91 7.118 3.956 3.908 9.72 6.234 15.64 6.806C65.677 143.05 74.506 146 84.5 146s18.823-2.95 24.135-7.457c5.919-.572 11.683-2.898 15.64-6.806 2.121-2.097 2.942-5.149 4.909-7.118 2.042-2.045 3.872-3.63 5.433-6.168 3.229-5.251 6.104-17.155 6.81-23.259.374-3.226-.78-9.345.054-12.488.75-2.828 1.45-5.676 2.05-8.54 1.254-5.997 1.73-12.06 1.332-18.179"/></defs><mask id="topLongHairStraight2-mask-1002" fill="#fff"><use xlink:href="#topLongHairStraight2-path-1004"/></mask><g id="Top/Long-Hair/Straight" mask="url(#topLongHairStraight2-mask-1002)"><g fill-rule="evenodd" transform="translate(-1)"><g id="Hair" fill="none" stroke-width="1" transform="translate(40 15)"><mask id="topLongHairStraight2-mask-1003" fill="#fff"><use xlink:href="#topLongHairStraight2-path-1005"/></mask><use xlink:href="#topLongHairStraight2-path-1005" fill="#272c2e"/><g id="Skin/👶🏽-03-Brown" fill="#B58143" mask="url(#topLongHairStraight2-mask-1003)"><path id="Color" d="M0 0h264v280H0z"/></g></g><path id="Shadow" fill="#000" fill-opacity=".16" d="M67 113c17.823-32.335 70.535-32.393 87.43-48.792 10.778 8.49 28.462 15.059 34.533 33.66-6.071-21.444-23.755-31.308-34.533-41.09C137.535 75.672 84.823 75.74 67 113"/></g></g><g id="Top/_Resources/Sunglasses" fill="none" stroke-width="1" transform="translate(62 85)"><defs><linearGradient id="react-linear-gradient-1243" x1="50%" x2="50%" y1="0%" y2="70.506%"><stop offset="0%" stop-color="#fff" stop-opacity=".5"/><stop offset="100%" stop-opacity=".5"/></linearGradient><linearGradient id="react-linear-gradient-1244" x1="50%" x2="50%" y1="0%" y2="100%"><stop offset="0%" stop-color="#fff" stop-opacity=".5"/><stop offset="70.506%" stop-opacity=".5"/></linearGradient><path id="accSunglasses-path-1240" d="M47.01 6.277c2.511.024 3.698.45 4.126 3.115.433 2.7.012 5.736-.488 8.395-.762 4.06-2.031 8.04-4.984 11.007-1.555 1.564-3.452 2.81-5.47 3.66-1.071.452-2.203.778-3.334 1.026-.33.072-3.154.468-1.422.267-4.041.47-8.425.45-11.8-2.168-3.74-2.901-6.301-7.493-7.427-12.066-.66-2.676-2.044-9.076.486-11.216 2.898-2.452 30.313-2.02 30.313-2.02"/><path id="accSunglasses-path-1241" d="M78.92 6.275c-2.512.024-3.699.449-4.126 3.114-.434 2.7-.012 5.736.487 8.395.763 4.061 2.032 8.04 4.984 11.008 1.556 1.563 3.453 2.809 5.47 3.66 1.072.451 2.204.778 3.335 1.025.33.072 3.153.469 1.422.267 4.04.47 8.425.45 11.8-2.167 3.74-2.902 6.3-7.493 7.427-12.066.66-2.677 2.043-9.077-.486-11.217-2.898-2.451-30.314-2.02-30.314-2.02"/></defs><g id="Sunglasses" transform="translate(8 8)"><g id="shades"><use xlink:href="#accSunglasses-path-1240" fill="#000" fill-opacity=".7"/><use xlink:href="#accSunglasses-path-1240" fill="url(#react-linear-gradient-1243)" style="mix-blend-mode:screen"/></g><g id="shades"><use xlink:href="#accSunglasses-path-1241" fill="#000" fill-opacity=".7"/><use xlink:href="#accSunglasses-path-1241" fill="url(#react-linear-gradient-1244)" style="mix-blend-mode:screen"/></g><g id="Glasses" fill="#252c2f"><path id="Frame" d="M46.25 7.275c2.37.022 3.492.417 3.896 2.89.41 2.506.011 5.322-.46 7.79-.721 3.768-1.92 7.46-4.708 10.214-1.47 1.45-3.261 2.606-5.167 3.395-1.012.42-2.081.722-3.15.952-.312.067-2.979.434-1.343.248-3.817.435-7.958.418-11.146-2.012-3.532-2.692-5.952-6.952-7.015-11.196-.623-2.483-1.93-8.422.459-10.407 2.737-2.274 28.633-1.874 28.633-1.874M22.217.491c-5.44.187-9.071 1.143-11.755 6.578-4.917 9.961 3.5 24.9 12.89 28.97 10.976 4.76 23.24-.507 29.043-10.033 3.073-5.044 4.626-12.683 4.526-18.502C56.795.077 51.607-.13 45.51.034zM79.68 7.273c-2.371.022-3.492.416-3.896 2.89-.41 2.505-.012 5.322.46 7.79.72 3.767 1.919 7.459 4.708 10.213 1.47 1.45 3.261 2.606 5.167 3.396 1.012.419 2.08.722 3.15.951.312.067 2.978.435 1.343.248 3.817.436 7.958.418 11.145-2.011 3.533-2.692 5.952-6.952 7.016-11.196.623-2.483 1.93-8.422-.46-10.407-2.737-2.275-28.632-1.874-28.632-1.874M103.713.488c5.44.187 9.071 1.144 11.754 6.579 4.918 9.96-3.5 24.9-12.889 28.97-10.977 4.76-23.24-.508-29.043-10.033C70.46 20.96 68.907 13.32 69.007 7.5 69.135.074 74.323-.132 80.42.031z"/><path id="Frame" d="M13.197 4.927c-3.412.191-7.31.237-10.507 1.712-3.385 1.562-3.908 5.1.36 5.587 1.92.22 3.845-.143 5.737-.481 1.55-.277 3.655-.187 5.12-.78 2.729-1.103 2.553-6.225-.71-6.038M112.735 4.927c3.412.191 7.31.237 10.507 1.712 3.384 1.562 3.907 5.1-.36 5.587-1.921.22-3.845-.143-5.738-.481-1.55-.277-3.654-.187-5.119-.78-2.73-1.103-2.554-6.225.71-6.038M73.11 7.013c-1.947-2.3-7.019-3.628-10.219-3.628s-8.123 1.328-10.069 3.628c-.981 1.16-1.015 2.711.686 3.438 2.118.906 4.01-.737 5.705-1.596 2.168-1.098 5.499-.978 7.506 0 1.708.833 3.586 2.502 5.704 1.596 1.701-.727 1.668-2.279.686-3.438"/></g></g></g>
<g id="Facial-Hair/Beard-Medium" transform="translate(49 72)"><defs><path id="fhBeardMedium-path-1286" d="M105.018 94.13c-3.868 5.591-6.76 1.817-10.88-1.254-2.481-1.849-6.177-4.148-9.634-4.035-3.456-.113-7.152 2.186-9.633 4.035-4.12 3.07-7.013 6.845-10.88 1.254-2.903-4.198-1.688-11.256 1.024-15.227 3.859-5.652 9.094-2.918 14.947-3.563 1.592-.175 3.19-.617 4.542-1.34 1.352.723 2.95 1.165 4.542 1.34 5.854.645 11.089-2.089 14.948 3.563 2.712 3.97 3.926 11.03 1.024 15.227M140.39 26c-3.424 14.075-4.998 28.434-7.481 42.671a319 319 0 0 1-1.685 8.879c-.127.62-.251 2.923-.862 3.214-1.851.884-5.624-3.817-6.633-4.879-2.533-2.666-5.045-5.356-8.13-7.448-6.235-4.227-13.535-6.726-21.13-7.32-3.178-.248-7.475.186-10.47 1.993-2.995-1.807-7.292-2.24-10.47-1.992-7.596.593-14.895 3.092-21.13 7.32-3.085 2.091-5.597 4.781-8.13 7.447-1.01 1.062-4.782 5.763-6.633 4.88-.61-.292-.735-2.595-.862-3.215a319 319 0 0 1-1.685-8.879C32.607 54.434 31.034 40.075 27.61 26c-.997 0-1.871 18.748-1.983 20.495-.452 7.094-.98 14.03-.305 21.131 1.164 12.249 2.377 27.608 11.71 36.962 8.434 8.451 20.678 10.218 31.24 15.553 1.36.687 3.163 1.535 5.108 2.23 2.049 1.563 6.113 2.629 10.794 2.629 4.91 0 9.142-1.173 11.08-2.862a47 47 0 0 0 4.475-1.997c10.56-5.336 22.805-7.102 31.238-15.553 9.334-9.354 10.547-24.713 11.712-36.962.674-7.1.146-14.037-.306-21.131C142.26 44.748 141.387 26 140.39 26"/></defs><mask id="fhBeardMedium-mask-1285" fill="#fff"><use xlink:href="#fhBeardMedium-path-1286"/></mask><use xlink:href="#fhBeardMedium-path-1286" id="Beardness" fill="#252e32" fill-rule="evenodd"/><g id="Color/Hair/Brown" fill="#724133" mask="url(#fhBeardMedium-mask-1285)"><path id="Color" d="M0 0h264v244H0z" transform="translate(-32)"/></g></g>
</g>
</g></g></g></svg>