<svg viewBox="0 0 264 280" xmlns="http://www.w3.org/2000/svg" xmlns:xlink="http://www.w3.org/1999/xlink"><defs><circle id="shared-path-1" cx="120" cy="120" r="120"/><path id="shared-path-2" d="M12 160c0 66.274 53.726 120 120 120s120-53.726 120-120h12V0H0v160z"/><path id="shared-path-3" d="M124 144.611V163h4c39.765 0 72 32.235 72 72v9H0v-9c0-39.765 32.235-72 72-72h4v-18.389c-17.237-8.189-29.628-24.924-31.695-44.73C38.48 99.058 34 94.052 34 88V74c0-5.946 4.325-10.882 10-11.834V56c0-30.928 25.072-56 56-56s56 25.072 56 56v6.166c5.675.952 10 5.888 10 11.834v14c0 6.052-4.48 11.058-10.305 11.881-2.067 19.806-14.458 36.541-31.695 44.73"/>
</defs><g id="Avataaar" stroke="none" stroke-width="1" fill="none" fill-rule="evenodd"><g transform="translate(0, 0)"><g transform="translate(12, 40)"><mask id="mask-bg" fill="white"><use xlink:href="#shared-path-1"/></mask><use fill="#E6E6E6" xlink:href="#shared-path-1"/><g mask="url(#mask-bg)" fill="#65C9FF"><rect x="0" y="0" width="240" height="240"/></g></g><mask id="mask-clip" fill="white"><use xlink:href="#shared-path-2"/></mask><g mask="url(#mask-clip)"><g id="Body" transform="translate(32 36)"><defs><path id="body-path-3" d="M124 144.611V163h4c39.765 0 72 32.235 72 72v9H0v-9c0-39.765 32.235-72 72-72h4v-18.389c-17.237-8.189-29.628-24.924-31.695-44.73C38.48 99.058 34 94.052 34 88V74c0-5.946 4.325-10.882 10-11.834V56c0-30.928 25.072-56 56-56s56 25.072 56 56v6.166c5.675.952 10 5.888 10 11.834v14c0 6.052-4.48 11.058-10.305 11.881-2.067 19.806-14.458 36.541-31.695 44.73"/></defs><mask id="body-mask-6" fill="#fff"><use xlink:href="#body-path-3"/></mask><use xlink:href="#body-path-3" fill="#d0c6ac"/><g id="Skin/👶🏽-03-Brown" fill="#FFDBB4" mask="url(#body-mask-6)"><path id="Color" d="M0 0h264v280H0z"/></g><path id="Neck-Shadow" fill="#000" fill-opacity=".1" d="M156 79v23c0 30.928-25.072 56-56 56s-56-25.072-56-56V79v15c0 30.928 25.072 56 56 56s56-25.072 56-56z" mask="url(#body-mask-6)"/></g>
<g id="Clothing/Collar-+-Sweater" transform="translate(0 170)"><defs><path id="clotheCollarSweater-path-493" d="M105.192 29.052H104c-39.765 0-72 32.235-72 72V110h200v-8.948c0-39.765-32.235-72-72-72h-1.192q.191 1.475.192 3c0 13.807-12.088 25-27 25s-27-11.193-27-25q0-1.525.192-3"/></defs><mask id="clotheCollarSweater-mask-494" fill="#fff"><use xlink:href="#clotheCollarSweater-path-493"/></mask><use xlink:href="#clotheCollarSweater-path-493" id="Clothes" fill="#e6e6e6" fill-rule="evenodd"/><g id="Color/Palette/Gray-01" fill="#25557C" fill-rule="evenodd" mask="url(#clotheCollarSweater-mask-494)"><path id="🖍Color" d="M0 0h264v110H0z"/></g><path id="Collar" fill="#f2f2f2" fill-rule="evenodd" d="M156 22.28c6.182 4.555 10 10.826 10 17.748 0 7.205-4.137 13.705-10.771 18.3l-5.65-4.452-4.579.332 1-3.151-.078-.061C152.022 47.853 156 42.7 156 36.876zm-48-.709c-6.767 4.603-11 11.169-11 18.457 0 7.398 4.362 14.052 11.308 18.664l6.113-4.816 4.579.332-1-3.151.078-.061C111.978 47.853 108 42.7 108 36.876z"/></g>
<g transform="translate(76, 82)" fill="#000000"><g id="Mouth/Eating" transform="translate(2 52)"><g id="Om-Nom-Nom" fill="#000" fill-opacity=".6" stroke-width="1" opacity=".6" transform="translate(28 6)"><path id="Delicious" d="M16.19 10.106C16.019 4.996 11.793.797 6.295 0 9.66 1.959 11.98 5.495 11.98 9.677c0 5.668-5.473 10.568-11.803 10.568H0c1.358.487 2.84.755 4.392.755 5.322 0 9.821-3.153 11.294-7.486 2.475 2.156 6.177 3.525 10.314 3.525s7.84-1.37 10.314-3.525C37.787 17.847 42.286 21 47.608 21c1.552 0 3.034-.268 4.392-.756l-.177.001c-6.33 0-11.803-4.9-11.803-10.568 0-4.182 2.32-7.718 5.686-9.677-5.498.797-9.724 4.996-9.897 10.106-2.564 1.736-6.014 2.8-9.809 2.8s-7.245-1.064-9.81-2.8"/></g><circle id="Redish" cx="17" cy="15" r="9" fill="#ff4646" fill-opacity=".2"/><circle id="Redish" cx="91" cy="15" r="9" fill="#ff4646" fill-opacity=".2"/></g>
<g id="Nose/Default" fill-opacity=".16" transform="translate(28 40)"><path id="Nose" d="M16 8c0 4.418 5.373 8 12 8s12-3.582 12-8"/></g>
<g id="Eyes/Hearts-😍" fill="#ff5353" fill-opacity=".8" fill-rule="nonzero" transform="translate(0 8)"><path id="Heart" d="M35.958 10c-2.55 0-5.074 1.98-6.458 3.82-1.39-1.84-3.907-3.82-6.458-3.82C17.552 10 14 13.334 14 17.641c0 5.73 4.412 9.13 9.042 12.736 1.653 1.236 4.78 4.4 5.166 5.094.386.693 2.106.718 2.584 0 .477-.718 3.51-3.858 5.166-5.094C40.585 26.77 45 23.37 45 17.64 45 13.334 41.448 10 35.958 10M88.958 10c-2.55 0-5.074 1.98-6.458 3.82-1.39-1.84-3.907-3.82-6.458-3.82C70.552 10 67 13.334 67 17.641c0 5.73 4.412 9.13 9.042 12.736 1.653 1.236 4.78 4.4 5.166 5.094.386.693 2.106.718 2.584 0 .477-.718 3.51-3.858 5.166-5.094C93.585 26.77 98 23.37 98 17.64 98 13.334 94.448 10 88.958 10"/></g>
<g id="Eyebrow/Natural/Raised-Excited-Natural" fill-opacity=".6"><path id="Eye-Browse-Reddit" d="m22.766 1.578.911-.402C28.92-.905 36.865-.033 41.723 2.299c.567.272.18 1.153-.402 1.108-14.919-1.151-24.963 8.146-28.375 14.44-.101.187-.407.208-.482.034-2.308-5.319 4.45-13.985 10.302-16.303"/><path id="Eye-Browse-Reddit" d="m80.766 1.578.911-.402C86.92-.905 94.865-.033 99.723 2.299c.567.272.18 1.153-.402 1.108-14.919-1.151-24.963 8.146-28.375 14.44-.101.187-.407.208-.482.034-2.308-5.319 4.45-13.985 10.302-16.303" transform="matrix(-1 0 0 1 170 0)"/></g>
</g><g id="Top" fill-rule="evenodd" stroke-width="1"><defs><path id="topLongHairFroBand-path-941" d="M0 0h264v280H0z"/><path id="topLongHairFroBand-path-942" d="M80.02 73.81A55.9 55.9 0 0 0 77 92v6.166c-5.675.952-10 5.888-10 11.834v13c0 6.019 4.43 11.002 10.209 11.867 1.743 20.248 14.26 37.416 31.791 45.744v10.944A36.4 36.4 0 0 1 93.5 195a36.35 36.35 0 0 1-23.19-8.312 54 54 0 0 1-5.81.312c-21.094 0-39.337-12.208-48.049-29.945C8.934 151.924 4 143.288 4 133.5c0-2.115.23-4.175.667-6.159A57.9 57.9 0 0 1 1 107c0-12.756 4.118-24.55 11.097-34.127A29 29 0 0 1 12 70.5c0-11.297 6.573-21.06 16.104-25.67 8.433-18.128 26.454-30.894 47.546-31.78A28.4 28.4 0 0 1 95.5 5c2.327 0 4.589.279 6.754.805C111.776 2.058 122.148 0 133 0c10.346 0 20.255 1.87 29.408 5.292A29 29 0 0 1 166.5 5a28.4 28.4 0 0 1 19.85 8.05c21.092.886 39.113 13.652 47.546 31.78C243.426 49.44 250 59.203 250 70.5q0 1.2-.097 2.373C256.882 82.45 261 94.243 261 107a57.9 57.9 0 0 1-3.667 20.341c.437 1.984.667 4.044.667 6.159 0 9.788-4.934 18.424-12.451 23.555C236.837 174.792 218.594 187 197.5 187a54 54 0 0 1-5.81-.312A36.35 36.35 0 0 1 168.5 195c-4.018 0-7.884-.65-11.5-1.849v-12.54c17.53-8.328 30.048-25.496 31.791-45.744C194.57 134.002 199 129.02 199 123v-13c0-5.946-4.325-10.882-10-11.834V92c0-5.441-.776-10.702-2.224-15.676l1.377 12.87-11.34-24-45.136-19.523-30.114 10.557L80.065 76.42z"/></defs><mask id="topLongHairFroBand-mask-939" fill="#fff"><use xlink:href="#topLongHairFroBand-path-941"/></mask><g id="Top/Long-Hair/Fro-+-Band" mask="url(#topLongHairFroBand-mask-939)"><g transform="translate(-1)"><mask id="topLongHairFroBand-mask-940" fill="#fff"><use xlink:href="#topLongHairFroBand-path-942"/></mask><use xlink:href="#topLongHairFroBand-path-942" id="Hair" fill="#314756" fill-rule="evenodd" stroke="none"/><g id="Skin/👶🏽-03-Brown" fill="#724133" mask="url(#topLongHairFroBand-mask-940)"><path id="Color" d="M0 0h264v280H0z"/></g><path id="Band" fill="#92d9ff" fill-rule="evenodd" stroke="none" d="M76.631 98.975A48.6 48.6 0 0 1 76 91.152C76 62.35 101.296 39 132.5 39S189 62.35 189 91.152c0 2.659-.216 5.271-.631 7.823-4.09-25.092-27.545-44.33-55.869-44.33s-51.78 19.238-55.869 44.33"/></g></g><g id="Top/_Resources/Wayfarers" fill="none" stroke-width="1" transform="translate(62 85)"><defs><path id="accWayfarers-path-1257" d="M44.918 17.571c0 9.703-8.25 17.572-21.998 17.572h-2.75C6.423 35.143.923 27.27.923 17.57.923 7.866 2.207 0 21.455 0h2.931c19.248 0 20.532 7.866 20.532 17.571"/><path id="accWayfarers-path-1258" d="M106.486 17.571c0 9.703-8.247 17.572-21.997 17.572h-2.75c-13.748 0-19.248-7.872-19.248-17.572C62.491 7.866 63.775 0 83.023 0h2.932c19.244 0 20.531 7.866 20.531 17.571"/><linearGradient id="react-linear-gradient-1260" x1="50%" x2="50%" y1="0%" y2="100%"><stop offset="0%" stop-color="#fff" stop-opacity=".5"/><stop offset="70.506%" stop-opacity=".5"/></linearGradient></defs><g id="Wayfarers" transform="translate(7 7)"><g id="Shades" fill-rule="evenodd" transform="translate(10.795 2.929)"><g id="Shade"><use xlink:href="#accWayfarers-path-1257" fill="#000" fill-opacity=".7"/><use xlink:href="#accWayfarers-path-1257" fill="url(#react-linear-gradient-1260)" style="mix-blend-mode:screen"/></g><g id="Shade"><use xlink:href="#accWayfarers-path-1258" fill="#000" fill-opacity=".7"/><use xlink:href="#accWayfarers-path-1258" fill="url(#react-linear-gradient-1260)" style="mix-blend-mode:screen"/></g></g><path id="Left" fill="#252c2f" fill-rule="nonzero" d="M33.716 41h-2.75c-13.888 0-22.18-7.664-22.18-20.5C8.787 10.127 10.6 0 32.25 0h2.932c21.651 0 23.463 10.127 23.463 20.5 0 12.069-10.25 20.5-24.93 20.5M32.25 5.854c-17.6 0-17.6 6.464-17.6 14.646 0 6.68 2.83 14.643 16.316 14.643h2.75c11.226 0 19.066-6.021 19.066-14.643 0-8.182 0-14.646-17.6-14.646z"/><path id="Right" fill="#252c2f" fill-rule="nonzero" d="M95.284 41h-2.75c-13.888 0-22.18-7.664-22.18-20.5 0-10.373 1.813-20.5 23.464-20.5h2.932c21.651 0 23.463 10.127 23.463 20.5 0 12.069-10.25 20.5-24.929 20.5M93.818 5.854c-17.6 0-17.6 6.464-17.6 14.646 0 6.68 2.833 14.643 16.316 14.643h2.75c11.226 0 19.066-6.021 19.066-14.643 0-8.182 0-14.646-17.6-14.646z"/><path id="Stuff" fill="#252c2f" fill-rule="nonzero" d="M2.932 5.857C3.618 5.172 11.123 0 32.25 0c17.714 0 21.464 1.88 27.14 4.72l.415.21c.395.143 2.413.844 4.773.921a16.5 16.5 0 0 0 4.528-.881C75.584 1.748 81.926 0 96.75 0c21.127 0 28.632 5.172 29.318 5.857A2.93 2.93 0 0 1 129 8.786v2.928c0 1.62-1.31 2.929-2.932 2.929 0 0-5.863 0-5.863 2.928s-2.932-4.237-2.932-5.857V8.862c-3.576-1.4-9.976-3.005-20.523-3.005-11.75 0-17.602 1.131-22.622 3.247l.056.139-2.496 1.007 2.493 1.008-2.2 5.43-2.717-1.1a13 13 0 0 0-1.493-.457c-2.024-.51-4.106-.666-5.946-.28a7.7 7.7 0 0 0-1.877.642l-2.622 1.31-2.623-5.238 2.622-1.31.006-.003-2.512-1.015.08-.198C50.57 6.976 46.58 5.857 32.25 5.857c-10.546 0-16.947 1.604-20.523 3.004v2.853c0 1.62-2.932 8.786-2.932 5.857s-5.863-2.928-5.863-2.928A2.93 2.93 0 0 1 0 11.714V8.786a2.93 2.93 0 0 1 2.932-2.929"/></g></g>
<g id="Facial-Hair/Beard-Majestic" transform="translate(49 72)"><defs><path id="fhBeardMajestic-path-1314" d="M65.18 77.737c2.183-1.632 15.227-2.258 17.578-3.648.734-.434 1.303-.873 1.742-1.309.439.436 1.009.875 1.742 1.31 2.351 1.389 15.395 2.015 17.578 3.647 2.21 1.654 3.824 5.448 3.647 8.414-.212 3.56-4.106 12.052-13.795 13.03-2.114-2.353-5.435-3.87-9.172-3.87s-7.058 1.517-9.172 3.87c-9.69-.978-13.583-9.47-13.795-13.03-.176-2.966 1.437-6.76 3.647-8.414m.665 17.164.017.007zm79.018-38.916c-.389-5.955-1.585-11.833-2.629-17.699-.281-1.579-1.81-12.286-2.5-12.286-.232 9.11-1.032 18.08-2.064 27.14-.309 2.708-.632 5.416-.845 8.134-.171 2.196.135 4.848-.397 6.972-.679 2.706-4.08 5.232-6.725 6.165-6.6 2.326-12.105-7.303-17.742-10.12-7.318-3.656-19.897-4.527-27.38.239-7.645-4.766-20.224-3.895-27.542-.239-5.637 2.817-11.142 12.446-17.742 10.12-2.645-.933-6.047-3.459-6.725-6.165-.532-2.124-.226-4.776-.397-6.972-.213-2.718-.536-5.426-.845-8.135C30.298 44.08 29.497 35.11 29.265 26c-.689 0-2.218 10.707-2.5 12.286-1.043 5.866-2.24 11.744-2.627 17.7-.4 6.119.077 12.181 1.332 18.177.599 2.865 1.299 5.713 2.049 8.541.834 3.143-.32 9.262.053 12.488.707 6.104 3.582 18.008 6.811 23.259 1.561 2.538 3.39 4.123 5.433 6.168 1.967 1.97 2.788 5.021 4.91 7.118 3.956 3.908 9.72 6.234 15.64 6.806C65.677 143.05 74.506 146 84.5 146s18.823-2.95 24.135-7.457c5.919-.572 11.683-2.898 15.64-6.806 2.121-2.097 2.942-5.149 4.909-7.118 2.042-2.045 3.872-3.63 5.433-6.168 3.229-5.251 6.104-17.155 6.81-23.259.374-3.226-.78-9.345.054-12.488.75-2.828 1.45-5.676 2.05-8.54 1.254-5.997 1.73-12.06 1.332-18.179"/></defs><mask id="fhBeardMajestic-mask-1313" fill="#fff"><use xlink:href="#fhBeardMajestic-path-1314"/></mask><use xlink:href="#fhBeardMajestic-path-1314" id="Glorious-Beard" fill="#5e7aa9" fill-rule="evenodd"/><g id="Color/Hair/Brown" fill="#A55728" mask="url(#fhBeardMajestic-mask-1313)"><path id="Color" d="M0 0h264v244H0z" transform="translate(-32)"/></g></g>
</g>
</g></g></g></svg>