<svg viewBox="0 0 264 280" xmlns="http://www.w3.org/2000/svg" xmlns:xlink="http://www.w3.org/1999/xlink"><defs><circle id="shared-path-1" cx="120" cy="120" r="120"/><path id="shared-path-2" d="M12 160c0 66.274 53.726 120 120 120s120-53.726 120-120h12V0H0v160z"/><path id="shared-path-3" d="M124 144.611V163h4c39.765 0 72 32.235 72 72v9H0v-9c0-39.765 32.235-72 72-72h4v-18.389c-17.237-8.189-29.628-24.924-31.695-44.73C38.48 99.058 34 94.052 34 88V74c0-5.946 4.325-10.882 10-11.834V56c0-30.928 25.072-56 56-56s56 25.072 56 56v6.166c5.675.952 10 5.888 10 11.834v14c0 6.052-4.48 11.058-10.305 11.881-2.067 19.806-14.458 36.541-31.695 44.73"/>
</defs><g id="Avataaar" stroke="none" stroke-width="1" fill="none" fill-rule="evenodd"><g transform="translate(0, 0)"><g transform="translate(12, 40)"><mask id="mask-bg" fill="white"><use xlink:href="#shared-path-1"/></mask><use fill="#E6E6E6" xlink:href="#shared-path-1"/><g mask="url(#mask-bg)" fill="#65C9FF"><rect x="0" y="0" width="240" height="240"/></g></g><mask id="mask-clip" fill="white"><use xlink:href="#shared-path-2"/></mask><g mask="url(#mask-clip)"><g id="Body" transform="translate(32 36)"><defs><path id="body-path-3" d="M124 144.611V163h4c39.765 0 72 32.235 72 72v9H0v-9c0-39.765 32.235-72 72-72h4v-18.389c-17.237-8.189-29.628-24.924-31.695-44.73C38.48 99.058 34 94.052 34 88V74c0-5.946 4.325-10.882 10-11.834V56c0-30.928 25.072-56 56-56s56 25.072 56 56v6.166c5.675.952 10 5.888 10 11.834v14c0 6.052-4.48 11.058-10.305 11.881-2.067 19.806-14.458 36.541-31.695 44.73"/></defs><mask id="body-mask-6" fill="#fff"><use xlink:href="#body-path-3"/></mask><use xlink:href="#body-path-3" fill="#d0c6ac"/><g id="Skin/👶🏽-03-Brown" fill="#D08B5B" mask="url(#body-mask-6)"><path id="Color" d="M0 0h264v280H0z"/></g><path id="Neck-Shadow" fill="#000" fill-opacity=".1" d="M156 79v23c0 30.928-25.072 56-56 56s-56-25.072-56-56V79v15c0 30.928 25.072 56 56 56s56-25.072 56-56z" mask="url(#body-mask-6)"/></g>
<g id="Clothing/Overall" transform="translate(0 170)"><defs><path id="clotheOverall-path-529" d="M94 29.688V74h76V29.688a71.5 71.5 0 0 1 26 8.944V110H68V38.632a71.5 71.5 0 0 1 26-8.944"/></defs><mask id="clotheOverall-mask-530" fill="#fff"><use xlink:href="#clotheOverall-path-529"/></mask><use xlink:href="#clotheOverall-path-529" id="Overall" fill="#b7c1db" fill-rule="evenodd"/><g id="Color/Palette/Gray-01" fill="#FFDEB5" fill-rule="evenodd" mask="url(#clotheOverall-mask-530)"><path id="🖍Color" d="M0 0h264v110H0z"/></g><circle id="Button" cx="81" cy="83" r="5" fill="#f4f4f4" fill-rule="evenodd"/><circle id="Button" cx="183" cy="83" r="5" fill="#f4f4f4" fill-rule="evenodd"/></g>
<g transform="translate(76, 82)" fill="#000000"><g id="Mouth/Smile" transform="translate(2 52)"><defs><path id="mouthSmile-path-415" d="M35.118 15.128C36.176 24.62 44.226 32 54 32c9.804 0 17.874-7.426 18.892-16.96.082-.767-.775-2.04-1.85-2.04H37.088c-1.08 0-2.075 1.178-1.97 2.128"/></defs><mask id="mouthSmile-mask-416" fill="#fff"><use xlink:href="#mouthSmile-path-415"/></mask><use xlink:href="#mouthSmile-path-415" id="Mouth" fill="#000" fill-opacity=".7" fill-rule="evenodd"/><rect id="Teeth" width="31" height="16" x="39" y="2" fill="#fff" fill-rule="evenodd" mask="url(#mouthSmile-mask-416)" rx="5"/><g id="Tongue" fill="#ff4f6d" fill-rule="evenodd" stroke-width="1" mask="url(#mouthSmile-mask-416)"><g transform="translate(38 24)"><circle cx="11" cy="11" r="11"/><circle cx="21" cy="11" r="11"/></g></g></g>
<g id="Nose/Default" fill-opacity=".16" transform="translate(28 40)"><path id="Nose" d="M16 8c0 4.418 5.373 8 12 8s12-3.582 12-8"/></g>
<g id="Eyes/Squint-😊" transform="translate(0 8)"><defs><path id="eyeSquint-path-117" d="M14 14.048c9.61 0 14 4.451 14-2.486C28 4.624 21.732 0 14 0S0 4.624 0 11.562s4.39 2.486 14 2.486"/><path id="eyeSquint-path-118" d="M14 14.048c9.61 0 14 4.451 14-2.486C28 4.624 21.732 0 14 0S0 4.624 0 11.562s4.39 2.486 14 2.486"/></defs><g id="Eye" transform="translate(16 13)"><mask id="eyeSquint-mask-119" fill="#fff"><use xlink:href="#eyeSquint-path-117"/></mask><use xlink:href="#eyeSquint-path-117" id="The-white-stuff" fill="#fff"/><circle cx="14" cy="10" r="6" fill-opacity=".7" mask="url(#eyeSquint-mask-119)"/></g><g id="Eye" transform="translate(68 13)"><mask id="eyeSquint-mask-120" fill="#fff"><use xlink:href="#eyeSquint-path-118"/></mask><use xlink:href="#eyeSquint-path-118" id="Eyeball-Mask" fill="#fff"/><circle cx="14" cy="10" r="6" fill-opacity=".7" mask="url(#eyeSquint-mask-120)"/></g></g>
<g id="Eyebrow/Outline/Angry" fill-opacity=".6" fill-rule="nonzero"><path id="Eyebrow" d="M15.611 15.185c4.24-5.769 6.878-5.484 13.313-.629l.67.508C34.422 18.726 36.708 20 40 20a2 2 0 1 0 0-4c-2.066 0-3.901-1.022-7.989-4.123-.375-.285-.492-.373-.678-.513-3.76-2.837-5.959-4.077-8.695-4.372-3.684-.398-7.058 1.482-10.25 5.823a2 2 0 0 0 3.223 2.37"/><path id="Eyebrow" d="M73.611 15.185c4.24-5.769 6.878-5.484 13.313-.629l.67.508C92.422 18.726 94.708 20 98 20a2 2 0 1 0 0-4c-2.066 0-3.901-1.022-7.989-4.123-.375-.285-.492-.373-.678-.513-3.76-2.837-5.959-4.077-8.695-4.372-3.684-.398-7.058 1.482-10.25 5.823a2 2 0 0 0 3.223 2.37" transform="matrix(-1 0 0 1 170 0)"/></g>
</g><g id="Top" fill-rule="evenodd" stroke-width="1"><defs><path id="topHat-path-738" d="M0 0h264v280H0z"/><path id="topHat-path-737" d="M156 180.611c17.53-8.328 30.048-25.496 31.791-45.744C193.57 134.002 198 129.02 198 123v-13c0-5.946-4.325-10.882-10-11.834V92a55.8 55.8 0 0 0-4.638-22.35C173.435 53 89.312 53.802 80.71 69.484A55.8 55.8 0 0 0 76 92v6.166c-5.675.952-10 5.888-10 11.834v13c0 6.019 4.43 11.002 10.209 11.867 1.743 20.248 14.26 37.416 31.791 45.744V199h-4c-39.765 0-72 32.235-72 72v9h200v-9c0-39.765-32.235-72-72-72h-4zM0 0h264v280H0z"/></defs><mask id="topHat-mask-735" fill="#fff"><use xlink:href="#topHat-path-738"/></mask><g id="Top/Accesories/Hat" mask="url(#topHat-mask-735)"><g transform="translate(-1)"><g id="Hat" fill-rule="evenodd" stroke-width="1" transform="translate(1)"><mask id="topHat-mask-736" fill="#fff"><use xlink:href="#topHat-path-737"/></mask><path fill="#1f333c" d="M123.182 2h18.636c18.791 0 35.049 13.08 39.072 31.436L190 75H75l9.11-41.564C88.133 15.08 104.39 2 123.182 2" mask="url(#topHat-mask-736)"/><ellipse id="Hipster" cx="132" cy="87.5" fill="#1f333c" mask="url(#topHat-mask-736)" rx="122" ry="57.5"/><ellipse id="Very" cx="132" cy="82" fill="#15232a" mask="url(#topHat-mask-736)" rx="62" ry="25"/></g></g></g></g>
</g></g></g></svg>