<svg viewBox="0 0 264 280" xmlns="http://www.w3.org/2000/svg" xmlns:xlink="http://www.w3.org/1999/xlink"><defs><circle id="shared-path-1" cx="120" cy="120" r="120"/><path id="shared-path-2" d="M12 160c0 66.274 53.726 120 120 120s120-53.726 120-120h12V0H0v160z"/><path id="shared-path-3" d="M124 144.611V163h4c39.765 0 72 32.235 72 72v9H0v-9c0-39.765 32.235-72 72-72h4v-18.389c-17.237-8.189-29.628-24.924-31.695-44.73C38.48 99.058 34 94.052 34 88V74c0-5.946 4.325-10.882 10-11.834V56c0-30.928 25.072-56 56-56s56 25.072 56 56v6.166c5.675.952 10 5.888 10 11.834v14c0 6.052-4.48 11.058-10.305 11.881-2.067 19.806-14.458 36.541-31.695 44.73"/>
</defs><g id="Avataaar" stroke="none" stroke-width="1" fill="none" fill-rule="evenodd"><g transform="translate(0, 0)"><g transform="translate(12, 40)"><mask id="mask-bg" fill="white"><use xlink:href="#shared-path-1"/></mask><use fill="#E6E6E6" xlink:href="#shared-path-1"/><g mask="url(#mask-bg)" fill="#65C9FF"><rect x="0" y="0" width="240" height="240"/></g></g><mask id="mask-clip" fill="white"><use xlink:href="#shared-path-2"/></mask><g mask="url(#mask-clip)"><g id="Body" transform="translate(32 36)"><defs><path id="body-path-3" d="M124 144.611V163h4c39.765 0 72 32.235 72 72v9H0v-9c0-39.765 32.235-72 72-72h4v-18.389c-17.237-8.189-29.628-24.924-31.695-44.73C38.48 99.058 34 94.052 34 88V74c0-5.946 4.325-10.882 10-11.834V56c0-30.928 25.072-56 56-56s56 25.072 56 56v6.166c5.675.952 10 5.888 10 11.834v14c0 6.052-4.48 11.058-10.305 11.881-2.067 19.806-14.458 36.541-31.695 44.73"/></defs><mask id="body-mask-6" fill="#fff"><use xlink:href="#body-path-3"/></mask><use xlink:href="#body-path-3" fill="#d0c6ac"/><g id="Skin/👶🏽-03-Brown" fill="#614335" mask="url(#body-mask-6)"><path id="Color" d="M0 0h264v280H0z"/></g><path id="Neck-Shadow" fill="#000" fill-opacity=".1" d="M156 79v23c0 30.928-25.072 56-56 56s-56-25.072-56-56V79v15c0 30.928 25.072 56 56 56s56-25.072 56-56z" mask="url(#body-mask-6)"/></g>
<g id="Clothing/Shirt-Crew-Neck" transform="translate(0 170)"><defs><path id="clotheShirtCrewNeck-path-541" d="M165.96 29.295c36.976 3.03 66.04 34 66.04 71.757V110H32v-8.948c0-38.1 29.592-69.287 67.045-71.832Q99 29.78 99 30.348c0 11.863 14.998 21.48 33.5 21.48S166 42.21 166 30.348q0-.53-.04-1.053"/></defs><mask id="clotheShirtCrewNeck-mask-542" fill="#fff"><use xlink:href="#clotheShirtCrewNeck-path-541"/></mask><use xlink:href="#clotheShirtCrewNeck-path-541" id="Clothes" fill="#e6e6e6" fill-rule="evenodd"/><g id="Color/Palette/Gray-01" fill="#B1E2FF" fill-rule="evenodd" mask="url(#clotheShirtCrewNeck-mask-542)"><path id="🖍Color" d="M0 0h264v110H0z"/></g><g id="Shadowy" fill="#000" fill-opacity=".16" fill-rule="evenodd" stroke-width="1" mask="url(#clotheShirtCrewNeck-mask-542)" opacity=".6"><ellipse id="Hola-👋🏼" cx="40.5" cy="27.848" rx="39.635" ry="26.914" transform="translate(92 4)"/></g></g>
<g transform="translate(76, 82)" fill="#000000"><g id="Mouth/Default" fill-opacity=".7" transform="translate(2 52)"><path id="Mouth" d="M40 15c0 7.732 6.268 14 14 14s14-6.268 14-14"/></g>
<g id="Nose/Default" fill-opacity=".16" transform="translate(28 40)"><path id="Nose" d="M16 8c0 4.418 5.373 8 12 8s12-3.582 12-8"/></g>
<g id="Eyes/Squint-😊" transform="translate(0 8)"><defs><path id="eyeSquint-path-117" d="M14 14.048c9.61 0 14 4.451 14-2.486C28 4.624 21.732 0 14 0S0 4.624 0 11.562s4.39 2.486 14 2.486"/><path id="eyeSquint-path-118" d="M14 14.048c9.61 0 14 4.451 14-2.486C28 4.624 21.732 0 14 0S0 4.624 0 11.562s4.39 2.486 14 2.486"/></defs><g id="Eye" transform="translate(16 13)"><mask id="eyeSquint-mask-119" fill="#fff"><use xlink:href="#eyeSquint-path-117"/></mask><use xlink:href="#eyeSquint-path-117" id="The-white-stuff" fill="#fff"/><circle cx="14" cy="10" r="6" fill-opacity=".7" mask="url(#eyeSquint-mask-119)"/></g><g id="Eye" transform="translate(68 13)"><mask id="eyeSquint-mask-120" fill="#fff"><use xlink:href="#eyeSquint-path-118"/></mask><use xlink:href="#eyeSquint-path-118" id="Eyeball-Mask" fill="#fff"/><circle cx="14" cy="10" r="6" fill-opacity=".7" mask="url(#eyeSquint-mask-120)"/></g></g>
<g id="Eyebrow/Outline/Angry" fill-opacity=".6" fill-rule="nonzero"><path id="Eyebrow" d="M15.611 15.185c4.24-5.769 6.878-5.484 13.313-.629l.67.508C34.422 18.726 36.708 20 40 20a2 2 0 1 0 0-4c-2.066 0-3.901-1.022-7.989-4.123-.375-.285-.492-.373-.678-.513-3.76-2.837-5.959-4.077-8.695-4.372-3.684-.398-7.058 1.482-10.25 5.823a2 2 0 0 0 3.223 2.37"/><path id="Eyebrow" d="M73.611 15.185c4.24-5.769 6.878-5.484 13.313-.629l.67.508C92.422 18.726 94.708 20 98 20a2 2 0 1 0 0-4c-2.066 0-3.901-1.022-7.989-4.123-.375-.285-.492-.373-.678-.513-3.76-2.837-5.959-4.077-8.695-4.372-3.684-.398-7.058 1.482-10.25 5.823a2 2 0 0 0 3.223 2.37" transform="matrix(-1 0 0 1 170 0)"/></g>
</g><g id="Top" fill-rule="evenodd" stroke-width="1"><defs><path id="topShortHairShortCurly-path-1084" d="M0 0h264v280H0z"/><path id="topShortHairShortCurly-path-1083" d="M94.252 52.022q.185-.081-.916-.062 1.338-.003.916.062m-8.135-15.72c-.002-.02.017.15 0 0m107.648 34.464c-.264-3.317-.732-6.614-1.518-9.855-.625-2.576-1.478-5.033-2.487-7.491-.61-1.485-2.032-3.524-2.2-5.126-.165-1.577 1.067-3.325 1.33-5.162a16 16 0 0 0-.156-5.438c-.833-4.023-3.594-7.764-7.857-8.813-.952-.234-2.964.055-3.636-.5-.771-.635-1.308-2.8-2.006-3.669-1.99-2.476-5.095-4.07-8.37-3.514-2.41.409-1.026.907-2.833-.512-1.005-.788-1.756-1.993-2.732-2.847-1.467-1.283-3.15-2.38-4.892-3.282-4.557-2.358-9.754-4.072-14.844-4.908-9.285-1.524-19.195-.195-28.195 2.22-4.479 1.201-8.987 2.726-13.147 4.743-1.783.864-2.813 1.582-4.673 1.808-2.928.357-5.409.339-8.183 1.581-8.536 3.822-12.381 12.689-9.06 21.174a14.6 14.6 0 0 0 2.82 4.584c1.521 1.68 2.072 1.35.762 3.282a52.8 52.8 0 0 0-4.955 9.172c-3.529 8.402-4.12 17.864-3.89 26.824.081 3.137.216 6.313.71 9.42.214 1.344.274 3.872 1.282 4.87.512.506 1.241.788 1.969.587 1.71-.474 1.121-1.735 1.161-2.906.2-5.884-.07-11.089 1.33-16.902 1.033-4.294 2.755-8.195 4.988-12.035 2.838-4.884 5.903-9.173 9.807-13.355.917-.984 1.118-1.4 2.349-1.472.932-.054 2.295.584 3.2.805 1.999.487 4 .968 6.034 1.296 3.74.603 7.444.644 11.217.525 7.426-.232 14.885-.753 22.085-2.623 4.782-1.242 9.022-3.47 13.602-5.105.082-.029 1.23-.847 1.43-.814.282.047 1.978 1.826 2.264 2.05 2.226 1.746 4.667 2.479 7.07 3.83 2.964 1.667.094-.718 1.728 1.359.477.605.72 1.726 1.103 2.411a18.1 18.1 0 0 0 4.93 5.624c1.956 1.47 4.894 2.18 5.891 4.095.769 1.477 1.028 3.484 1.648 5.06 1.628 4.136 3.777 7.992 5.926 11.887 1.732 3.14 3.625 5.881 3.818 9.468.067 1.248-1.121 8.737 1.773 6.46.429-.338 1.353-4.156 1.543-4.804.772-2.633 1.046-5.381 1.395-8.086.694-5.38.923-10.498.47-15.916"/></defs><mask id="topShortHairShortCurly-mask-1082" fill="#fff"><use xlink:href="#topShortHairShortCurly-path-1084"/></mask><g id="Top/Short-Hair/Short-Curly" mask="url(#topShortHairShortCurly-mask-1082)"><g transform="translate(-1)"><mask id="topShortHairShortCurly-mask-1081" fill="#fff"><use xlink:href="#topShortHairShortCurly-path-1083"/></mask><use xlink:href="#topShortHairShortCurly-path-1083" id="Short-Hair" fill="#28354b" fill-rule="evenodd" stroke="none"/><g id="Skin/👶🏽-03-Brown" fill="#724133" mask="url(#topShortHairShortCurly-mask-1081)"><path id="Color" d="M0 0h264v280H0z"/></g></g></g><g id="Top/_Resources/Prescription-01" fill="none" stroke-width="1" transform="translate(62 85)"><defs></defs><g id="Glasses" fill="#d6eaf2" transform="translate(8 8)"><path id="Frame-Stuff" d="M46.25 7.275c2.37.022 3.492.417 3.896 2.89.41 2.506.011 5.322-.46 7.79-.721 3.768-1.92 7.46-4.708 10.214-1.47 1.45-3.261 2.606-5.167 3.395-1.012.42-2.081.722-3.15.952-.312.067-2.979.434-1.343.248-3.817.435-7.958.418-11.146-2.012-3.532-2.692-5.952-6.952-7.015-11.196-.623-2.483-1.93-8.422.459-10.407 2.737-2.274 28.633-1.874 28.633-1.874M22.217.491c-5.44.187-9.071 1.143-11.755 6.578-4.917 9.961 3.5 24.9 12.89 28.97 10.976 4.76 23.24-.507 29.043-10.033 3.073-5.044 4.626-12.683 4.526-18.502C56.795.077 51.607-.13 45.51.034zM79.68 7.273c-2.371.022-3.492.416-3.896 2.89-.41 2.505-.012 5.322.46 7.79.72 3.767 1.919 7.459 4.708 10.213 1.47 1.45 3.261 2.606 5.167 3.396 1.012.419 2.08.722 3.15.951.312.067 2.978.435 1.343.248 3.817.436 7.958.418 11.145-2.011 3.533-2.692 5.952-6.952 7.016-11.196.623-2.483 1.93-8.422-.46-10.407-2.737-2.275-28.632-1.874-28.632-1.874M103.713.488c5.44.187 9.071 1.144 11.754 6.579 4.918 9.96-3.5 24.9-12.889 28.97-10.977 4.76-23.24-.508-29.043-10.033C70.46 20.96 68.907 13.32 69.007 7.5 69.135.074 74.323-.132 80.42.031z"/><path id="Frame-Stuff" d="M13.197 4.927c-3.412.191-7.31.237-10.507 1.712-3.385 1.562-3.908 5.1.36 5.587 1.92.22 3.845-.143 5.737-.481 1.55-.277 3.655-.187 5.12-.78 2.729-1.103 2.553-6.225-.71-6.038M112.735 4.927c3.412.191 7.31.237 10.507 1.712 3.384 1.562 3.907 5.1-.36 5.587-1.921.22-3.845-.143-5.738-.481-1.55-.277-3.654-.187-5.119-.78-2.73-1.103-2.554-6.225.71-6.038M73.11 7.013c-1.947-2.3-7.019-3.628-10.219-3.628s-8.123 1.328-10.069 3.628c-.981 1.16-1.015 2.711.686 3.438 2.118.906 4.01-.737 5.705-1.596 2.168-1.098 5.499-.978 7.506 0 1.708.833 3.586 2.502 5.704 1.596 1.701-.727 1.668-2.279.686-3.438"/></g></g>
</g>
</g></g></g></svg>