<svg viewBox="0 0 264 280" xmlns="http://www.w3.org/2000/svg" xmlns:xlink="http://www.w3.org/1999/xlink"><defs><circle id="shared-path-1" cx="120" cy="120" r="120"/><path id="shared-path-2" d="M12 160c0 66.274 53.726 120 120 120s120-53.726 120-120h12V0H0v160z"/><path id="shared-path-3" d="M124 144.611V163h4c39.765 0 72 32.235 72 72v9H0v-9c0-39.765 32.235-72 72-72h4v-18.389c-17.237-8.189-29.628-24.924-31.695-44.73C38.48 99.058 34 94.052 34 88V74c0-5.946 4.325-10.882 10-11.834V56c0-30.928 25.072-56 56-56s56 25.072 56 56v6.166c5.675.952 10 5.888 10 11.834v14c0 6.052-4.48 11.058-10.305 11.881-2.067 19.806-14.458 36.541-31.695 44.73"/>
</defs><g id="Avataaar" stroke="none" stroke-width="1" fill="none" fill-rule="evenodd"><g transform="translate(0, 0)"><g transform="translate(12, 40)"><mask id="mask-bg" fill="white"><use xlink:href="#shared-path-1"/></mask><use fill="#E6E6E6" xlink:href="#shared-path-1"/><g mask="url(#mask-bg)" fill="#65C9FF"><rect x="0" y="0" width="240" height="240"/></g></g><mask id="mask-clip" fill="white"><use xlink:href="#shared-path-2"/></mask><g mask="url(#mask-clip)"><g id="Body" transform="translate(32 36)"><defs><path id="body-path-3" d="M124 144.611V163h4c39.765 0 72 32.235 72 72v9H0v-9c0-39.765 32.235-72 72-72h4v-18.389c-17.237-8.189-29.628-24.924-31.695-44.73C38.48 99.058 34 94.052 34 88V74c0-5.946 4.325-10.882 10-11.834V56c0-30.928 25.072-56 56-56s56 25.072 56 56v6.166c5.675.952 10 5.888 10 11.834v14c0 6.052-4.48 11.058-10.305 11.881-2.067 19.806-14.458 36.541-31.695 44.73"/></defs><mask id="body-mask-6" fill="#fff"><use xlink:href="#body-path-3"/></mask><use xlink:href="#body-path-3" fill="#d0c6ac"/><g id="Skin/👶🏽-03-Brown" fill="#F8D25C" mask="url(#body-mask-6)"><path id="Color" d="M0 0h264v280H0z"/></g><path id="Neck-Shadow" fill="#000" fill-opacity=".1" d="M156 79v23c0 30.928-25.072 56-56 56s-56-25.072-56-56V79v15c0 30.928 25.072 56 56 56s56-25.072 56-56z" mask="url(#body-mask-6)"/></g>
<g id="Clothing/Hoodie" transform="translate(0 170)"><defs><path id="clotheHoodie-path-517" d="M108 13.07c-17.919 2.006-31.72 7.482-31.996 21.575C50.146 45.568 32 71.165 32 100.999V110h200v-9c0-29.835-18.146-55.432-44.004-66.355-.276-14.093-14.077-19.57-31.996-21.574V32c0 13.255-10.745 24-24 24s-24-10.745-24-24z"/></defs><mask id="clotheHoodie-mask-518" fill="#fff"><use xlink:href="#clotheHoodie-path-517"/></mask><use xlink:href="#clotheHoodie-path-517" id="Hoodie" fill="#b7c1db" fill-rule="evenodd"/><g id="Color/Palette/Gray-01" fill="#FFAFB9" fill-rule="evenodd" mask="url(#clotheHoodie-mask-518)"><path id="🖍Color" d="M0 0h264v110H0z"/></g><path id="Straps" fill="#f4f4f4" fill-rule="evenodd" d="M102 61.74V110h-7V58.15a65 65 0 0 0 7 3.59m67-3.59V98.5a3.5 3.5 0 1 1-7 0V61.74a65 65 0 0 0 7-3.59" mask="url(#clotheHoodie-mask-518)"/><path id="Shadow" fill="#000" fill-opacity=".16" fill-rule="evenodd" d="M90.96 12.724C75.91 15.571 65.5 21.243 65.5 32.308 65.5 52.02 98.538 68 132 68s66.5-15.98 66.5-35.692c0-11.065-10.41-16.737-25.46-19.584 9.085 3.35 14.96 8.982 14.96 18.353C188 51.469 160.179 68 132 68S76 51.469 76 31.077c0-9.37 5.875-15.003 14.96-18.353" mask="url(#clotheHoodie-mask-518)"/></g>
<g transform="translate(76, 82)" fill="#000000"><g id="Mouth/Default" fill-opacity=".7" transform="translate(2 52)"><path id="Mouth" d="M40 15c0 7.732 6.268 14 14 14s14-6.268 14-14"/></g>
<g id="Nose/Default" fill-opacity=".16" transform="translate(28 40)"><path id="Nose" d="M16 8c0 4.418 5.373 8 12 8s12-3.582 12-8"/></g>
<g id="Eyes/Squint-😊" transform="translate(0 8)"><defs><path id="eyeSquint-path-117" d="M14 14.048c9.61 0 14 4.451 14-2.486C28 4.624 21.732 0 14 0S0 4.624 0 11.562s4.39 2.486 14 2.486"/><path id="eyeSquint-path-118" d="M14 14.048c9.61 0 14 4.451 14-2.486C28 4.624 21.732 0 14 0S0 4.624 0 11.562s4.39 2.486 14 2.486"/></defs><g id="Eye" transform="translate(16 13)"><mask id="eyeSquint-mask-119" fill="#fff"><use xlink:href="#eyeSquint-path-117"/></mask><use xlink:href="#eyeSquint-path-117" id="The-white-stuff" fill="#fff"/><circle cx="14" cy="10" r="6" fill-opacity=".7" mask="url(#eyeSquint-mask-119)"/></g><g id="Eye" transform="translate(68 13)"><mask id="eyeSquint-mask-120" fill="#fff"><use xlink:href="#eyeSquint-path-118"/></mask><use xlink:href="#eyeSquint-path-118" id="Eyeball-Mask" fill="#fff"/><circle cx="14" cy="10" r="6" fill-opacity=".7" mask="url(#eyeSquint-mask-120)"/></g></g>
<g id="Eyebrow/Natural/Flat-Natural" fill-opacity=".6"><path id="Fill-10" d="M38.569 10.702c-4.982.536-9.914.432-14.913.4-3.833-.026-7.736-.413-11.331 1.407-.689.348-4.448 2.436-4.322 3.502.1.852 4.01 2.053 4.714 2.273 3.711 1.161 7.207.644 10.97.286 4.615-.438 9.227-.395 13.845-.696 3.11-.202 7.89-.897 9.297-4.726.424-1.153-.014-3.414-.522-4.642-.202-.488-.744-.656-1.138-.357-1.413 1.073-4.184 2.294-6.6 2.553" transform="rotate(2 27.5 13.5)"/><path id="Fill-10" d="M95.569 10.702c-4.982.536-9.914.432-14.913.4-3.833-.026-7.736-.413-11.331 1.407-.689.348-4.448 2.436-4.322 3.502.1.852 4.01 2.053 4.714 2.273 3.711 1.161 7.207.644 10.97.286 4.615-.438 9.227-.395 13.845-.696 3.11-.202 7.89-.897 9.297-4.726.424-1.153-.014-3.414-.522-4.642-.202-.488-.744-.656-1.138-.357-1.413 1.073-4.184 2.294-6.6 2.553" transform="rotate(178 84.264 0)scale(1 -1)"/></g>
</g><g id="Top" fill-rule="evenodd" stroke-width="1"><defs><path id="topShortHairShortRound-path-1110" d="M0 0h264v280H0z"/><path id="topShortHairShortRound-path-1109" d="M167.309 35.006c-20.188-11.7-40.18-9.784-55.272-5.976s-24.02 14.621-31.68 30.618c-3.761 7.855-5.991 17.143-6.334 25.833-.135 3.412.325 6.934 1.245 10.22.337 1.205 2.155 5.386 2.654 2.008.167-1.125-.442-2.676-.5-3.871-.078-1.569.005-3.157.112-4.723.2-2.928.722-5.8 1.65-8.59 1.328-3.988 3.017-8.312 5.603-11.677 6.401-8.327 17.482-8.802 26.28-13.384-.764 1.405-3.707 3.68-2.688 5.263.705 1.094 3.37.762 4.643.727 3.349-.092 6.713-.674 10.02-1.147 5.214-.745 10.099-2.255 15.005-4.089 4.016-1.502 8.603-2.892 11.622-6.078 4.87 5.048 11.14 9.795 17.401 13.003 5.618 2.88 14.679 4.318 18.113 10.158 4.065 6.914 2.195 15.406 3.436 22.9.472 2.85 1.545 2.786 2.132.237.997-4.33 1.468-8.828 1.151-13.279-.718-10.048-4.405-36.453-24.593-48.153"/></defs><mask id="topShortHairShortRound-mask-1108" fill="#fff"><use xlink:href="#topShortHairShortRound-path-1110"/></mask><g id="Top/Short-Hair/Short-Round" mask="url(#topShortHairShortRound-mask-1108)"><g transform="translate(-1)"><mask id="topShortHairShortRound-mask-1107" fill="#fff"><use xlink:href="#topShortHairShortRound-path-1109"/></mask><use xlink:href="#topShortHairShortRound-path-1109" id="Short-Hair" fill="#28354b" fill-rule="evenodd" stroke="none"/><g id="Skin/👶🏽-03-Brown" fill="#724133" mask="url(#topShortHairShortRound-mask-1107)"><path id="Color" d="M0 0h264v280H0z"/></g></g></g><g id="Top/_Resources/Kurt" fill="none" stroke-width="1" transform="translate(62 85)"><defs></defs><g id="Kurts" fill-rule="nonzero" transform="translate(5 2)"><path id="It!" fill="#f4f4f4" d="M66 11.111c-11.037 0-12.63-9.084-35.33-10.37C7.987-.283.816 6.449.777 11.11c.037 4.293-1.128 15.45 13.589 28.519 14.772 15.512 29.905 10.252 35.33 5.185C55.134 42.473 61.34 21.46 66 21.48s10.865 20.992 16.306 23.334c5.424 5.067 20.557 10.327 35.33-5.185 14.716-13.069 13.55-24.226 13.588-28.519-.04-4.662-7.21-11.394-29.895-10.37C78.63 2.027 77.037 11.11 66 11.11"/><path id="Did" fill="#2f383b" d="M55.13 21.481c.38-7.658-12.914-15.839-27.177-15.555-14.256.299-16.111 9.453-16.306 12.963-.349 8.133 8.367 26.415 24.459 25.926 16.091-.51 18.803-18.28 19.023-23.334"/><path id="Courtney" fill="#2f383b" d="M120.353 21.481c.38-7.658-12.914-15.839-27.177-15.555-14.255.299-16.11 9.453-16.305 12.963-.35 8.133 8.367 26.415 24.458 25.926 16.092-.51 18.804-18.28 19.024-23.334" transform="matrix(-1 0 0 1 197.224 0)"/></g></g>
</g>
</g></g></g></svg>