<svg viewBox="0 0 264 280" xmlns="http://www.w3.org/2000/svg" xmlns:xlink="http://www.w3.org/1999/xlink"><defs><circle id="shared-path-1" cx="120" cy="120" r="120"/><path id="shared-path-2" d="M12 160c0 66.274 53.726 120 120 120s120-53.726 120-120h12V0H0v160z"/><path id="shared-path-3" d="M124 144.611V163h4c39.765 0 72 32.235 72 72v9H0v-9c0-39.765 32.235-72 72-72h4v-18.389c-17.237-8.189-29.628-24.924-31.695-44.73C38.48 99.058 34 94.052 34 88V74c0-5.946 4.325-10.882 10-11.834V56c0-30.928 25.072-56 56-56s56 25.072 56 56v6.166c5.675.952 10 5.888 10 11.834v14c0 6.052-4.48 11.058-10.305 11.881-2.067 19.806-14.458 36.541-31.695 44.73"/>
</defs><g id="Avataaar" stroke="none" stroke-width="1" fill="none" fill-rule="evenodd"><g transform="translate(0, 0)"><g transform="translate(12, 40)"><mask id="mask-bg" fill="white"><use xlink:href="#shared-path-1"/></mask><use fill="#E6E6E6" xlink:href="#shared-path-1"/><g mask="url(#mask-bg)" fill="#65C9FF"><rect x="0" y="0" width="240" height="240"/></g></g><mask id="mask-clip" fill="white"><use xlink:href="#shared-path-2"/></mask><g mask="url(#mask-clip)"><g id="Body" transform="translate(32 36)"><defs><path id="body-path-3" d="M124 144.611V163h4c39.765 0 72 32.235 72 72v9H0v-9c0-39.765 32.235-72 72-72h4v-18.389c-17.237-8.189-29.628-24.924-31.695-44.73C38.48 99.058 34 94.052 34 88V74c0-5.946 4.325-10.882 10-11.834V56c0-30.928 25.072-56 56-56s56 25.072 56 56v6.166c5.675.952 10 5.888 10 11.834v14c0 6.052-4.48 11.058-10.305 11.881-2.067 19.806-14.458 36.541-31.695 44.73"/></defs><mask id="body-mask-6" fill="#fff"><use xlink:href="#body-path-3"/></mask><use xlink:href="#body-path-3" fill="#d0c6ac"/><g id="Skin/👶🏽-03-Brown" fill="#FFDBB4" mask="url(#body-mask-6)"><path id="Color" d="M0 0h264v280H0z"/></g><path id="Neck-Shadow" fill="#000" fill-opacity=".1" d="M156 79v23c0 30.928-25.072 56-56 56s-56-25.072-56-56V79v15c0 30.928 25.072 56 56 56s56-25.072 56-56z" mask="url(#body-mask-6)"/></g>
<g id="Clothing/Blazer-+-Shirt" transform="translate(0 170)"><defs><path id="clotheBlazerShirt-path-469" d="M133.96.295c36.976 3.03 66.04 34 66.04 71.757V81H0v-8.948C0 33.952 29.592 2.765 67.045.22Q67 .78 67 1.348c0 11.863 14.998 21.48 33.5 21.48S134 13.21 134 1.348q0-.53-.04-1.053"/></defs><g id="Shirt" transform="translate(32 29)"><mask id="clotheBlazerShirt-mask-470" fill="#fff"><use xlink:href="#clotheBlazerShirt-path-469"/></mask><use xlink:href="#clotheBlazerShirt-path-469" id="Clothes" fill="#e6e6e6"/><g id="Color/Palette/Black" fill="#262e33" mask="url(#clotheBlazerShirt-mask-470)"><path id="🖍Color" d="M0 0h264v110H0z" transform="translate(-32 -29)"/></g><g id="Shadowy" fill="#000" fill-opacity=".16" mask="url(#clotheBlazerShirt-mask-470)" opacity=".6"><ellipse id="Hola-👋🏼" cx="40.5" cy="27.848" rx="39.635" ry="26.914" transform="translate(60 -25)"/></g></g><g id="Blazer" transform="translate(32 28)"><path id="Saco" fill="#3a4c5a" d="M68.785 1.122C30.512 2.804 0 34.365 0 73.052V82h69.362C65.96 69.92 64 55.709 64 40.5c0-14.327 1.74-27.769 4.785-39.378M131.638 82H200v-8.948c0-38.345-29.975-69.69-67.771-71.878C135.265 12.77 137 26.194 137 40.5c0 15.209-1.96 29.42-5.362 41.5"/><path id="Pocket-hanky" fill="#e6e6e6" d="m149 58 9.556-7.167a4 4 0 0 1 4.856.043L170 56z"/><path id="Wing" fill="#2f4351" d="M69 0q-6 29 5 82H58L44 46l6-9-6-6L63 1q3.042-.945 6-1"/><path id="Wing" fill="#2f4351" d="M151 0q-6 29 5 82h-16l-14-36 6-9-6-6 19-30q3.042-.945 6-1" transform="matrix(-1 0 0 1 282 0)"/></g></g>
<g transform="translate(76, 82)" fill="#000000"><g id="Mouth/Tongue" transform="translate(2 52)"><defs><path id="mouthTongue-path-429" d="M29 15.609C30.41 25.23 41.062 33 54 33c12.968 0 23.646-7.817 25-18.26.101-.4-.225-1.74-2.174-1.74H31.174c-1.79 0-2.304 1.24-2.174 2.609"/></defs><mask id="mouthTongue-mask-430" fill="#fff"><use xlink:href="#mouthTongue-path-429"/></mask><use xlink:href="#mouthTongue-path-429" id="Mouth" fill="#000" fill-opacity=".7" fill-rule="evenodd"/><rect id="Teeth" width="31" height="16" x="39" y="2" fill="#fff" fill-rule="evenodd" mask="url(#mouthTongue-mask-430)" rx="5"/><path id="Tongue" fill="#ff4f6d" fill-rule="evenodd" d="M65.984 23.747Q66 23.87 66 24v9c0 6.075-4.925 11-11 11h-1c-6.075 0-11-4.925-11-11v-9q0-.129.016-.253A2 2 0 0 1 43 23.5c0-1.933 2.91-3.5 6.5-3.5 2.01 0 3.808.491 5 1.263 1.192-.772 2.99-1.263 5-1.263 3.59 0 6.5 1.567 6.5 3.5q0 .124-.016.247"/></g>
<g id="Nose/Default" fill-opacity=".16" transform="translate(28 40)"><path id="Nose" d="M16 8c0 4.418 5.373 8 12 8s12-3.582 12-8"/></g>
<g id="Eyes/Side-😒" fill-opacity=".6" transform="translate(0 8)"><path id="Eye" d="M27.241 20.346a6 6 0 1 0 10.699 2.8 2 2 0 0 0-.125-.739 8 8 0 0 0-.144-.372 6 6 0 0 0-1.646-2.484C33.9 17.317 30.506 16 26.998 16c-4.834 0-8.991 2.649-10.838 6.447-.54 1.111.387 1.853 1.278 1.125 2.436-1.993 5.82-3.228 9.56-3.228q.12 0 .243.002M85.241 20.346a6 6 0 1 0 10.699 2.8 2 2 0 0 0-.125-.739 8 8 0 0 0-.144-.372 6 6 0 0 0-1.646-2.484C91.9 17.317 88.506 16 84.998 16c-4.834 0-8.991 2.649-10.838 6.447-.54 1.111.387 1.853 1.278 1.125 2.436-1.993 5.82-3.228 9.56-3.228q.12 0 .243.002"/></g>
<g id="Eyebrow/Natural/Raised-Excited-Natural" fill-opacity=".6"><path id="Eye-Browse-Reddit" d="m22.766 1.578.911-.402C28.92-.905 36.865-.033 41.723 2.299c.567.272.18 1.153-.402 1.108-14.919-1.151-24.963 8.146-28.375 14.44-.101.187-.407.208-.482.034-2.308-5.319 4.45-13.985 10.302-16.303"/><path id="Eye-Browse-Reddit" d="m80.766 1.578.911-.402C86.92-.905 94.865-.033 99.723 2.299c.567.272.18 1.153-.402 1.108-14.919-1.151-24.963 8.146-28.375 14.44-.101.187-.407.208-.482.034-2.308-5.319 4.45-13.985 10.302-16.303" transform="matrix(-1 0 0 1 170 0)"/></g>
</g><g id="Top" fill-rule="evenodd" stroke-width="1"><defs><path id="topShortHairTheCaesarSidePart-path-1161" d="M0 0h264v280H0z"/><path id="topShortHairTheCaesarSidePart-path-1162" d="M82.018 24.378c-7.032-.693-15.36-1.127-23.705-1.132C39.008 23.232 19.618 25.483 16 28 6.296 35.248 2.537 62.446 3 64c-.327 1.223-1.653 1.488-2 0C.28 53.702 1 1.726 58 1s57.72 52.702 57 63c-.347 1.488-1.673 1.223-2 0 .463-1.554-3.296-28.752-13-36-1.76-1.224-7.247-2.39-14.641-3.261L89 16z"/></defs><mask id="topShortHairTheCaesarSidePart-mask-1159" fill="#fff"><use xlink:href="#topShortHairTheCaesarSidePart-path-1161"/></mask><g id="Top/Short-Hair/The-Caesar-+-Side-Part" mask="url(#topShortHairTheCaesarSidePart-mask-1159)"><g transform="translate(-1)"><g id="Hair" fill-rule="evenodd" stroke-width="1" transform="translate(75 34)"><mask id="topShortHairTheCaesarSidePart-mask-1160" fill="#fff"><use xlink:href="#topShortHairTheCaesarSidePart-path-1162"/></mask><use xlink:href="#topShortHairTheCaesarSidePart-path-1162" id="Caesar" fill="#28354b"/><g id="Skin/👶🏽-03-Brown" fill="#E8E1E1" mask="url(#topShortHairTheCaesarSidePart-mask-1160)"><path id="Color" d="M0 0h264v280H0z"/></g></g></g></g><g id="Top/_Resources/Prescription-02" fill="none" stroke-width="1" transform="translate(62 85)"><defs></defs><g id="Wayfarers" fill="#252c2f" fill-rule="nonzero" transform="translate(6 7)"><path id="Left" d="M34 41h-2.758C17.315 41 9 33.336 9 20.5 9 10.127 10.817 0 32.53 0h2.94C57.183 0 59 10.127 59 20.5 59 32.569 48.721 41 34 41M32.385 6C13 6 13 12.841 13 21.502 13 28.572 16.116 37 30.97 37H34c12.365 0 21-6.373 21-15.498C55 12.84 55 6 35.615 6z"/><path id="Right" d="M96 41h-2.758C79.315 41 71 33.336 71 20.5 71 10.127 72.817 0 94.53 0h2.94C119.183 0 121 10.127 121 20.5 121 32.569 110.721 41 96 41M94.385 6C75 6 75 12.841 75 21.502 75 28.572 78.12 37 92.97 37H96c12.365 0 21-6.373 21-15.498C117 12.84 117 6 97.615 6z"/><path id="Stuff" d="M2.955 5.772C3.645 5.096 11.21 0 32.5 0c17.851 0 21.63 1.853 27.35 4.652l.419.207c.398.14 2.431.83 4.81.907a17 17 0 0 0 4.563-.869C76.17 1.722 82.562 0 97.5 0c21.29 0 28.854 5.096 29.545 5.772 1.634 0 2.955 1.29 2.955 2.885v2.886c0 1.596-1.32 2.886-2.955 2.886 0 0-6.901 0-6.901 2.886 0 2.885-1.962-4.176-1.962-5.772v-2.81c-3.603-1.38-10.054-3.947-20.682-3.947-11.842 0-17.739 2.1-22.798 4.185l.057.137-.003 1.986-2.217 5.35L69.8 15.36c-.244-.097-.772-.27-1.504-.451-2.04-.503-4.137-.656-5.992-.276q-1.021.21-1.891.633l-2.643 1.29-2.643-5.16.117-2.295.08-.195c-4.362-2.033-8.385-4.12-22.824-4.12-10.628 0-17.078 2.565-20.682 3.944v2.812c0 1.596-2.954 8.657-2.954 5.772 0-2.886-5.91-2.886-5.91-2.886-1.63 0-2.954-1.29-2.954-2.886V8.657c0-1.595 1.324-2.885 2.955-2.885"/></g></g>
</g>
</g></g></g></svg>