<svg viewBox="0 0 264 280" xmlns="http://www.w3.org/2000/svg" xmlns:xlink="http://www.w3.org/1999/xlink"><defs><circle id="shared-path-1" cx="120" cy="120" r="120"/><path id="shared-path-2" d="M12 160c0 66.274 53.726 120 120 120s120-53.726 120-120h12V0H0v160z"/><path id="shared-path-3" d="M124 144.611V163h4c39.765 0 72 32.235 72 72v9H0v-9c0-39.765 32.235-72 72-72h4v-18.389c-17.237-8.189-29.628-24.924-31.695-44.73C38.48 99.058 34 94.052 34 88V74c0-5.946 4.325-10.882 10-11.834V56c0-30.928 25.072-56 56-56s56 25.072 56 56v6.166c5.675.952 10 5.888 10 11.834v14c0 6.052-4.48 11.058-10.305 11.881-2.067 19.806-14.458 36.541-31.695 44.73"/>
</defs><g id="Avataaar" stroke="none" stroke-width="1" fill="none" fill-rule="evenodd"><g transform="translate(0, 0)"><g transform="translate(12, 40)"><mask id="mask-bg" fill="white"><use xlink:href="#shared-path-1"/></mask><use fill="#E6E6E6" xlink:href="#shared-path-1"/><g mask="url(#mask-bg)" fill="#65C9FF"><rect x="0" y="0" width="240" height="240"/></g></g><mask id="mask-clip" fill="white"><use xlink:href="#shared-path-2"/></mask><g mask="url(#mask-clip)"><g id="Body" transform="translate(32 36)"><defs><path id="body-path-3" d="M124 144.611V163h4c39.765 0 72 32.235 72 72v9H0v-9c0-39.765 32.235-72 72-72h4v-18.389c-17.237-8.189-29.628-24.924-31.695-44.73C38.48 99.058 34 94.052 34 88V74c0-5.946 4.325-10.882 10-11.834V56c0-30.928 25.072-56 56-56s56 25.072 56 56v6.166c5.675.952 10 5.888 10 11.834v14c0 6.052-4.48 11.058-10.305 11.881-2.067 19.806-14.458 36.541-31.695 44.73"/></defs><mask id="body-mask-6" fill="#fff"><use xlink:href="#body-path-3"/></mask><use xlink:href="#body-path-3" fill="#d0c6ac"/><g id="Skin/👶🏽-03-Brown" fill="#614335" mask="url(#body-mask-6)"><path id="Color" d="M0 0h264v280H0z"/></g><path id="Neck-Shadow" fill="#000" fill-opacity=".1" d="M156 79v23c0 30.928-25.072 56-56 56s-56-25.072-56-56V79v15c0 30.928 25.072 56 56 56s56-25.072 56-56z" mask="url(#body-mask-6)"/></g>
<g id="Clothing/Hoodie" transform="translate(0 170)"><defs><path id="clotheHoodie-path-517" d="M108 13.07c-17.919 2.006-31.72 7.482-31.996 21.575C50.146 45.568 32 71.165 32 100.999V110h200v-9c0-29.835-18.146-55.432-44.004-66.355-.276-14.093-14.077-19.57-31.996-21.574V32c0 13.255-10.745 24-24 24s-24-10.745-24-24z"/></defs><mask id="clotheHoodie-mask-518" fill="#fff"><use xlink:href="#clotheHoodie-path-517"/></mask><use xlink:href="#clotheHoodie-path-517" id="Hoodie" fill="#b7c1db" fill-rule="evenodd"/><g id="Color/Palette/Gray-01" fill="#262E33" fill-rule="evenodd" mask="url(#clotheHoodie-mask-518)"><path id="🖍Color" d="M0 0h264v110H0z"/></g><path id="Straps" fill="#f4f4f4" fill-rule="evenodd" d="M102 61.74V110h-7V58.15a65 65 0 0 0 7 3.59m67-3.59V98.5a3.5 3.5 0 1 1-7 0V61.74a65 65 0 0 0 7-3.59" mask="url(#clotheHoodie-mask-518)"/><path id="Shadow" fill="#000" fill-opacity=".16" fill-rule="evenodd" d="M90.96 12.724C75.91 15.571 65.5 21.243 65.5 32.308 65.5 52.02 98.538 68 132 68s66.5-15.98 66.5-35.692c0-11.065-10.41-16.737-25.46-19.584 9.085 3.35 14.96 8.982 14.96 18.353C188 51.469 160.179 68 132 68S76 51.469 76 31.077c0-9.37 5.875-15.003 14.96-18.353" mask="url(#clotheHoodie-mask-518)"/></g>
<g transform="translate(76, 82)" fill="#000000"><g id="Mouth/Disbelief" fill="#000" fill-opacity=".7" transform="translate(2 52)"><path id="Mouth" d="M40 15c0 7.732 6.268 14 14 14s14-6.268 14-14" transform="matrix(1 0 0 -1 0 44)"/></g>
<g id="Nose/Default" fill-opacity=".16" transform="translate(28 40)"><path id="Nose" d="M16 8c0 4.418 5.373 8 12 8s12-3.582 12-8"/></g>
<g id="Eyes/Squint-😊" transform="translate(0 8)"><defs><path id="eyeSquint-path-117" d="M14 14.048c9.61 0 14 4.451 14-2.486C28 4.624 21.732 0 14 0S0 4.624 0 11.562s4.39 2.486 14 2.486"/><path id="eyeSquint-path-118" d="M14 14.048c9.61 0 14 4.451 14-2.486C28 4.624 21.732 0 14 0S0 4.624 0 11.562s4.39 2.486 14 2.486"/></defs><g id="Eye" transform="translate(16 13)"><mask id="eyeSquint-mask-119" fill="#fff"><use xlink:href="#eyeSquint-path-117"/></mask><use xlink:href="#eyeSquint-path-117" id="The-white-stuff" fill="#fff"/><circle cx="14" cy="10" r="6" fill-opacity=".7" mask="url(#eyeSquint-mask-119)"/></g><g id="Eye" transform="translate(68 13)"><mask id="eyeSquint-mask-120" fill="#fff"><use xlink:href="#eyeSquint-path-118"/></mask><use xlink:href="#eyeSquint-path-118" id="Eyeball-Mask" fill="#fff"/><circle cx="14" cy="10" r="6" fill-opacity=".7" mask="url(#eyeSquint-mask-120)"/></g></g>
<g id="Eyebrow/Natural/Flat-Natural" fill-opacity=".6"><path id="Fill-10" d="M38.569 10.702c-4.982.536-9.914.432-14.913.4-3.833-.026-7.736-.413-11.331 1.407-.689.348-4.448 2.436-4.322 3.502.1.852 4.01 2.053 4.714 2.273 3.711 1.161 7.207.644 10.97.286 4.615-.438 9.227-.395 13.845-.696 3.11-.202 7.89-.897 9.297-4.726.424-1.153-.014-3.414-.522-4.642-.202-.488-.744-.656-1.138-.357-1.413 1.073-4.184 2.294-6.6 2.553" transform="rotate(2 27.5 13.5)"/><path id="Fill-10" d="M95.569 10.702c-4.982.536-9.914.432-14.913.4-3.833-.026-7.736-.413-11.331 1.407-.689.348-4.448 2.436-4.322 3.502.1.852 4.01 2.053 4.714 2.273 3.711 1.161 7.207.644 10.97.286 4.615-.438 9.227-.395 13.845-.696 3.11-.202 7.89-.897 9.297-4.726.424-1.153-.014-3.414-.522-4.642-.202-.488-.744-.656-1.138-.357-1.413 1.073-4.184 2.294-6.6 2.553" transform="rotate(178 84.264 0)scale(1 -1)"/></g>
</g><g id="Top"><defs><path id="topWinterHat3-path-807" d="M0 0h264v280H0z"/><path id="topWinterHat3-path-805" d="M66 0c36.45 0 66 29.55 66 66v5H0v-5C0 29.55 29.55 0 66 0"/><path id="topWinterHat3-path-806" d="M67.285 61.451Q91.202 44 133.073 44q41.869 0 65.659 17.45A8 8 0 0 1 202 67.9v30.47a4 4 0 0 1-6.135 3.383Q170.902 86 133.805 86q-37.383 0-63.73 15.994A4 4 0 0 1 64 98.575V67.914a8 8 0 0 1 3.285-6.463"/></defs><g id="Top/Accessories/Winter-Hat-3" transform="translate(-1)"><g id="hat" fill-rule="evenodd" stroke-width="1" transform="translate(67 12)"><circle id="puff" cx="66" cy="8" r="20" fill="#f4f4f4"/><mask id="topWinterHat3-mask-804" fill="#fff"><use xlink:href="#topWinterHat3-path-805"/></mask><use xlink:href="#topWinterHat3-path-805" id="hat-mask" fill="#d8d8d8"/><g id="Color/Palette/Gray-01" fill="#B1E2FF" fill-rule="evenodd" mask="url(#topWinterHat3-mask-804)"><path id="🖍Color" d="M0 0h264v280H0z"/></g></g><g id="hat-front"><use xlink:href="#topWinterHat3-path-806"/><use xlink:href="#topWinterHat3-path-806" fill="#f4f4f4" fill-rule="evenodd"/></g></g><g id="Top/_Resources/Wayfarers" fill="none" stroke-width="1" transform="translate(62 85)"><defs><path id="accWayfarers-path-1257" d="M44.918 17.571c0 9.703-8.25 17.572-21.998 17.572h-2.75C6.423 35.143.923 27.27.923 17.57.923 7.866 2.207 0 21.455 0h2.931c19.248 0 20.532 7.866 20.532 17.571"/><path id="accWayfarers-path-1258" d="M106.486 17.571c0 9.703-8.247 17.572-21.997 17.572h-2.75c-13.748 0-19.248-7.872-19.248-17.572C62.491 7.866 63.775 0 83.023 0h2.932c19.244 0 20.531 7.866 20.531 17.571"/><linearGradient id="react-linear-gradient-1260" x1="50%" x2="50%" y1="0%" y2="100%"><stop offset="0%" stop-color="#fff" stop-opacity=".5"/><stop offset="70.506%" stop-opacity=".5"/></linearGradient></defs><g id="Wayfarers" transform="translate(7 7)"><g id="Shades" fill-rule="evenodd" transform="translate(10.795 2.929)"><g id="Shade"><use xlink:href="#accWayfarers-path-1257" fill="#000" fill-opacity=".7"/><use xlink:href="#accWayfarers-path-1257" fill="url(#react-linear-gradient-1260)" style="mix-blend-mode:screen"/></g><g id="Shade"><use xlink:href="#accWayfarers-path-1258" fill="#000" fill-opacity=".7"/><use xlink:href="#accWayfarers-path-1258" fill="url(#react-linear-gradient-1260)" style="mix-blend-mode:screen"/></g></g><path id="Left" fill="#252c2f" fill-rule="nonzero" d="M33.716 41h-2.75c-13.888 0-22.18-7.664-22.18-20.5C8.787 10.127 10.6 0 32.25 0h2.932c21.651 0 23.463 10.127 23.463 20.5 0 12.069-10.25 20.5-24.93 20.5M32.25 5.854c-17.6 0-17.6 6.464-17.6 14.646 0 6.68 2.83 14.643 16.316 14.643h2.75c11.226 0 19.066-6.021 19.066-14.643 0-8.182 0-14.646-17.6-14.646z"/><path id="Right" fill="#252c2f" fill-rule="nonzero" d="M95.284 41h-2.75c-13.888 0-22.18-7.664-22.18-20.5 0-10.373 1.813-20.5 23.464-20.5h2.932c21.651 0 23.463 10.127 23.463 20.5 0 12.069-10.25 20.5-24.929 20.5M93.818 5.854c-17.6 0-17.6 6.464-17.6 14.646 0 6.68 2.833 14.643 16.316 14.643h2.75c11.226 0 19.066-6.021 19.066-14.643 0-8.182 0-14.646-17.6-14.646z"/><path id="Stuff" fill="#252c2f" fill-rule="nonzero" d="M2.932 5.857C3.618 5.172 11.123 0 32.25 0c17.714 0 21.464 1.88 27.14 4.72l.415.21c.395.143 2.413.844 4.773.921a16.5 16.5 0 0 0 4.528-.881C75.584 1.748 81.926 0 96.75 0c21.127 0 28.632 5.172 29.318 5.857A2.93 2.93 0 0 1 129 8.786v2.928c0 1.62-1.31 2.929-2.932 2.929 0 0-5.863 0-5.863 2.928s-2.932-4.237-2.932-5.857V8.862c-3.576-1.4-9.976-3.005-20.523-3.005-11.75 0-17.602 1.131-22.622 3.247l.056.139-2.496 1.007 2.493 1.008-2.2 5.43-2.717-1.1a13 13 0 0 0-1.493-.457c-2.024-.51-4.106-.666-5.946-.28a7.7 7.7 0 0 0-1.877.642l-2.622 1.31-2.623-5.238 2.622-1.31.006-.003-2.512-1.015.08-.198C50.57 6.976 46.58 5.857 32.25 5.857c-10.546 0-16.947 1.604-20.523 3.004v2.853c0 1.62-2.932 8.786-2.932 5.857s-5.863-2.928-5.863-2.928A2.93 2.93 0 0 1 0 11.714V8.786a2.93 2.93 0 0 1 2.932-2.929"/></g></g>
</g>
</g></g></g></svg>