<svg viewBox="0 0 264 280" xmlns="http://www.w3.org/2000/svg" xmlns:xlink="http://www.w3.org/1999/xlink"><defs><circle id="shared-path-1" cx="120" cy="120" r="120"/><path id="shared-path-2" d="M12 160c0 66.274 53.726 120 120 120s120-53.726 120-120h12V0H0v160z"/><path id="shared-path-3" d="M124 144.611V163h4c39.765 0 72 32.235 72 72v9H0v-9c0-39.765 32.235-72 72-72h4v-18.389c-17.237-8.189-29.628-24.924-31.695-44.73C38.48 99.058 34 94.052 34 88V74c0-5.946 4.325-10.882 10-11.834V56c0-30.928 25.072-56 56-56s56 25.072 56 56v6.166c5.675.952 10 5.888 10 11.834v14c0 6.052-4.48 11.058-10.305 11.881-2.067 19.806-14.458 36.541-31.695 44.73"/>
</defs><g id="Avataaar" stroke="none" stroke-width="1" fill="none" fill-rule="evenodd"><g transform="translate(0, 0)"><g transform="translate(12, 40)"><mask id="mask-bg" fill="white"><use xlink:href="#shared-path-1"/></mask><use fill="#E6E6E6" xlink:href="#shared-path-1"/><g mask="url(#mask-bg)" fill="#65C9FF"><rect x="0" y="0" width="240" height="240"/></g></g><mask id="mask-clip" fill="white"><use xlink:href="#shared-path-2"/></mask><g mask="url(#mask-clip)"><g id="Body" transform="translate(32 36)"><defs><path id="body-path-3" d="M124 144.611V163h4c39.765 0 72 32.235 72 72v9H0v-9c0-39.765 32.235-72 72-72h4v-18.389c-17.237-8.189-29.628-24.924-31.695-44.73C38.48 99.058 34 94.052 34 88V74c0-5.946 4.325-10.882 10-11.834V56c0-30.928 25.072-56 56-56s56 25.072 56 56v6.166c5.675.952 10 5.888 10 11.834v14c0 6.052-4.48 11.058-10.305 11.881-2.067 19.806-14.458 36.541-31.695 44.73"/></defs><mask id="body-mask-6" fill="#fff"><use xlink:href="#body-path-3"/></mask><use xlink:href="#body-path-3" fill="#d0c6ac"/><g id="Skin/👶🏽-03-Brown" fill="#FFDBB4" mask="url(#body-mask-6)"><path id="Color" d="M0 0h264v280H0z"/></g><path id="Neck-Shadow" fill="#000" fill-opacity=".1" d="M156 79v23c0 30.928-25.072 56-56 56s-56-25.072-56-56V79v15c0 30.928 25.072 56 56 56s56-25.072 56-56z" mask="url(#body-mask-6)"/></g>
<g id="Clothing/Blazer-+-Shirt" transform="translate(0 170)"><defs><path id="clotheBlazerShirt-path-469" d="M133.96.295c36.976 3.03 66.04 34 66.04 71.757V81H0v-8.948C0 33.952 29.592 2.765 67.045.22Q67 .78 67 1.348c0 11.863 14.998 21.48 33.5 21.48S134 13.21 134 1.348q0-.53-.04-1.053"/></defs><g id="Shirt" transform="translate(32 29)"><mask id="clotheBlazerShirt-mask-470" fill="#fff"><use xlink:href="#clotheBlazerShirt-path-469"/></mask><use xlink:href="#clotheBlazerShirt-path-469" id="Clothes" fill="#e6e6e6"/><g id="Color/Palette/Black" fill="#262e33" mask="url(#clotheBlazerShirt-mask-470)"><path id="🖍Color" d="M0 0h264v110H0z" transform="translate(-32 -29)"/></g><g id="Shadowy" fill="#000" fill-opacity=".16" mask="url(#clotheBlazerShirt-mask-470)" opacity=".6"><ellipse id="Hola-👋🏼" cx="40.5" cy="27.848" rx="39.635" ry="26.914" transform="translate(60 -25)"/></g></g><g id="Blazer" transform="translate(32 28)"><path id="Saco" fill="#3a4c5a" d="M68.785 1.122C30.512 2.804 0 34.365 0 73.052V82h69.362C65.96 69.92 64 55.709 64 40.5c0-14.327 1.74-27.769 4.785-39.378M131.638 82H200v-8.948c0-38.345-29.975-69.69-67.771-71.878C135.265 12.77 137 26.194 137 40.5c0 15.209-1.96 29.42-5.362 41.5"/><path id="Pocket-hanky" fill="#e6e6e6" d="m149 58 9.556-7.167a4 4 0 0 1 4.856.043L170 56z"/><path id="Wing" fill="#2f4351" d="M69 0q-6 29 5 82H58L44 46l6-9-6-6L63 1q3.042-.945 6-1"/><path id="Wing" fill="#2f4351" d="M151 0q-6 29 5 82h-16l-14-36 6-9-6-6 19-30q3.042-.945 6-1" transform="matrix(-1 0 0 1 282 0)"/></g></g>
<g transform="translate(76, 82)" fill="#000000"><g id="Mouth/Default" fill-opacity=".7" transform="translate(2 52)"><path id="Mouth" d="M40 15c0 7.732 6.268 14 14 14s14-6.268 14-14"/></g>
<g id="Nose/Default" fill-opacity=".16" transform="translate(28 40)"><path id="Nose" d="M16 8c0 4.418 5.373 8 12 8s12-3.582 12-8"/></g>
<g id="Eyes/Surprised-😳" transform="translate(0 8)"><circle id="The-White-Stuff" cx="30" cy="22" r="14" fill="#fff"/><circle id="Eye-Ball" cx="82" cy="22" r="14" fill="#fff"/><circle id="Eye" cx="30" cy="22" r="6" fill="#000" fill-opacity=".7"/><circle id="Eye" cx="82" cy="22" r="6" fill="#000" fill-opacity=".7"/></g>
<g id="Eyebrow/Natural/Raised-Excited-Natural" fill-opacity=".6"><path id="Eye-Browse-Reddit" d="m22.766 1.578.911-.402C28.92-.905 36.865-.033 41.723 2.299c.567.272.18 1.153-.402 1.108-14.919-1.151-24.963 8.146-28.375 14.44-.101.187-.407.208-.482.034-2.308-5.319 4.45-13.985 10.302-16.303"/><path id="Eye-Browse-Reddit" d="m80.766 1.578.911-.402C86.92-.905 94.865-.033 99.723 2.299c.567.272.18 1.153-.402 1.108-14.919-1.151-24.963 8.146-28.375 14.44-.101.187-.407.208-.482.034-2.308-5.319 4.45-13.985 10.302-16.303" transform="matrix(-1 0 0 1 170 0)"/></g>
</g><g id="Top" fill-rule="evenodd" stroke-width="1"><defs><path id="topTurban-path-764" d="M0 0h264v280H0z"/><path id="topTurban-path-765" d="M156 180.611c17.53-8.328 30.048-25.496 31.791-45.744C193.57 134.002 198 129.02 198 123v-13c0-5.946-4.325-10.882-10-11.834V92c0-30.928-25.072-56-56-56S76 61.072 76 92v6.166c-5.675.952-10 5.888-10 11.834v13c0 6.019 4.43 11.002 10.209 11.867 1.743 20.248 14.26 37.416 31.791 45.744V199h-4c-39.765 0-72 32.235-72 72v9h200v-9c0-39.765-32.235-72-72-72h-4zM0 0h264v280H0z"/><path id="topTurban-path-766" d="M83.972 55.817C107.404 69.414 145.115 82.111 139 138q29.066-8.46 29-46.676C167.918 44.148 115.85 0 86 0q-1.012 0-2.008.088A23 23 0 0 0 82 0C52.074 0 .08 44.148 0 91.324Q-.067 130.498 29 138c-6.138-55.889 31.51-68.586 54.972-82.183"/></defs><mask id="topTurban-mask-761" fill="#fff"><use xlink:href="#topTurban-path-764"/></mask><g id="Top/Accesories/Turban" mask="url(#topTurban-mask-761)"><g fill-rule="evenodd" stroke-width="1"><g id="Turban"><path id="Band" fill="#edece3" d="M74.53 97.5c-1-2.41-1.53-4.92-1.53-7.5 0-18.225 26.415-33 59-33s59 14.775 59 33c0 2.58-.53 5.09-1.53 7.5C183.398 82.888 159.972 72 132 72S80.602 82.888 74.53 97.5"/><g transform="translate(48 3)"><mask id="topTurban-mask-763" fill="#fff"><use xlink:href="#topTurban-path-766"/></mask><use xlink:href="#topTurban-path-766" id="Turban-Mask" fill="#124c74"/><g id="Color/Palette/Gray-01" fill="#FFAFB9" fill-rule="evenodd" mask="url(#topTurban-mask-763)"><path id="🖍Color" d="M0 0h264v280H0z"/></g></g><path id="Shadow" fill="#000" fill-opacity=".16" d="M48.011 96.012q.555 37.65 28.99 44.988-29.068-7.066-29-43.97 0-.51.01-1.018m104.635-65.544c.744 5.727-.52 12.421-4.646 19.668-11.153 21.43-71.439 21.868-71.666 79.544-.229-61.919 60.471-62.3 71.666-85.136 2.67-4.977 4.141-9.709 4.646-14.076"/></g></g></g></g>
</g></g></g></svg>