<svg viewBox="0 0 264 280" xmlns="http://www.w3.org/2000/svg" xmlns:xlink="http://www.w3.org/1999/xlink"><defs><circle id="shared-path-1" cx="120" cy="120" r="120"/><path id="shared-path-2" d="M12 160c0 66.274 53.726 120 120 120s120-53.726 120-120h12V0H0v160z"/><path id="shared-path-3" d="M124 144.611V163h4c39.765 0 72 32.235 72 72v9H0v-9c0-39.765 32.235-72 72-72h4v-18.389c-17.237-8.189-29.628-24.924-31.695-44.73C38.48 99.058 34 94.052 34 88V74c0-5.946 4.325-10.882 10-11.834V56c0-30.928 25.072-56 56-56s56 25.072 56 56v6.166c5.675.952 10 5.888 10 11.834v14c0 6.052-4.48 11.058-10.305 11.881-2.067 19.806-14.458 36.541-31.695 44.73"/>
</defs><g id="Avataaar" stroke="none" stroke-width="1" fill="none" fill-rule="evenodd"><g transform="translate(0, 0)"><g transform="translate(12, 40)"><mask id="mask-bg" fill="white"><use xlink:href="#shared-path-1"/></mask><use fill="#E6E6E6" xlink:href="#shared-path-1"/><g mask="url(#mask-bg)" fill="#65C9FF"><rect x="0" y="0" width="240" height="240"/></g></g><mask id="mask-clip" fill="white"><use xlink:href="#shared-path-2"/></mask><g mask="url(#mask-clip)"><g id="Body" transform="translate(32 36)"><defs><path id="body-path-3" d="M124 144.611V163h4c39.765 0 72 32.235 72 72v9H0v-9c0-39.765 32.235-72 72-72h4v-18.389c-17.237-8.189-29.628-24.924-31.695-44.73C38.48 99.058 34 94.052 34 88V74c0-5.946 4.325-10.882 10-11.834V56c0-30.928 25.072-56 56-56s56 25.072 56 56v6.166c5.675.952 10 5.888 10 11.834v14c0 6.052-4.48 11.058-10.305 11.881-2.067 19.806-14.458 36.541-31.695 44.73"/></defs><mask id="body-mask-6" fill="#fff"><use xlink:href="#body-path-3"/></mask><use xlink:href="#body-path-3" fill="#d0c6ac"/><g id="Skin/👶🏽-03-Brown" fill="#F8D25C" mask="url(#body-mask-6)"><path id="Color" d="M0 0h264v280H0z"/></g><path id="Neck-Shadow" fill="#000" fill-opacity=".1" d="M156 79v23c0 30.928-25.072 56-56 56s-56-25.072-56-56V79v15c0 30.928 25.072 56 56 56s56-25.072 56-56z" mask="url(#body-mask-6)"/></g>
<g id="Clothing/Graphic-Shirt" transform="translate(0 170)"><defs><path id="gshirtPizza-path-637" d="M165.624 29.268C202.76 32.138 232 63.18 232 101.052V110H32v-8.948c0-38.217 29.775-69.48 67.393-71.855A14 14 0 0 0 99 32.5C99 44.374 113.998 54 132.5 54S166 44.374 166 32.5c0-1.098-.128-2.178-.376-3.232"/></defs><mask id="gshirtPizza-mask-638" fill="#fff"><use xlink:href="#gshirtPizza-path-637"/></mask><use xlink:href="#gshirtPizza-path-637" id="Clothes" fill="#e6e6e6" fill-rule="evenodd"/><g id="Color/Palette/Gray-01" fill="#B1E2FF" fill-rule="evenodd" mask="url(#gshirtPizza-mask-638)"><path id="🖍Color" d="M0 0h264v110H0z"/></g><g id="Clothing/Graphic/Pizza" fill-rule="evenodd" stroke-width="1" mask="url(#gshirtPizza-mask-638)"><g id="Group-2" fill="#fff" transform="translate(112 59)"><path id="Fill-29" d="M30.933 24.391c-4.082 1.38-8.55 3.324-10.905 7.074-1.847 2.942-1.971-.455-4.55.593-2.508 1.019-1.822 5.223-2.733 7.301-.708-1.191-1.043-2.516-1.935-3.604a6.6 6.6 0 0 0 1.814-1.724c.156-.32-4.792.348-5.076.43-1.411.401-2.74.77-4.088 1.429a79 79 0 0 0 1.965-2.989q.31-1.02 1.108-.006c.748.036 1.178.357 1.962.177 2.915-.667 3.843-6.223.25-5.987a93 93 0 0 0 4.253-8.802c.502 4.291 6.08 2.813 7.719.525 2.14-2.989-.604-8.662-4.484-8.112.581-1.375 1.17-2.762 1.65-4.178 1.092 1.61 3.001 2.39 4.538 3.457a18.2 18.2 0 0 1 4.163 4.006c2.386 3.14 3.793 7.007 6.215 10.052a7 7 0 0 0-1.866.358m9.006-4.388c-.632-5.757-5.15-11.601-9.44-15.176-2.55-2.125-10.24-7.385-13.306-3.34 2.472 1.071 5.2 1.33 7.65 2.489 3.32 1.572 5.922 4.16 8.168 7.055 3.137 4.045 7.97 12.283.474 14.386.518-.338.819-.709 1.228-1.308-1.007-.233-.6-1.878-.954-2.952-.412-1.25-1.21-2.467-1.884-3.582a57 57 0 0 0-3.504-5.171c-1.678-2.186-3.686-3.907-5.977-5.396-.907-.589-1.775-1.11-2.817-1.415-1.349-.394-.907.086-1.276-1.146-.232-.773-.024-1.763-.246-2.592-1.973 1.658-2.615 4.055-3.5 6.381-1.02 2.684-2.122 5.335-3.196 7.997-2.635 6.535-6.034 12.395-9.891 18.247-.672 1.02-2.165 2.95-1.09 4.174.96 1.095 2.33.306 3.386-.139 1.436-.604 3.385-2.164 4.935-1.347 1.998 1.054 1.054 4.984 4.214 4.827 3.114-.154 2.527-5.28 3.527-7.317 2.311 1.685 4.175.64 5.579-1.611 1.626-2.61 3.775-3.657 6.513-4.938 1.12-.524 3.034-1.94 4.2-2.115.966-.145 1.893.883 3.184.837 3.098-.113 4.392-4.253 4.023-6.848"/><path id="Fill-31" d="M18.537 22.834c-2.425-.445-5.807-.074-6.029 3.153-.136 1.978 1.41 3.848 3.082 4.664 5.122 2.5 9.109-6.688 2.947-7.817"/><path id="Fill-33" d="M28.336 19.158c-.65-.706-1.703-1.24-2.675-.993.31-.214.568-.6.864-.839-3.156-2.286-5.14 3.479-3.346 5.748 2.717 3.44 8.037-.766 5.157-3.916"/></g></g></g>
<g transform="translate(76, 82)" fill="#000000"><g id="Mouth/Disbelief" fill="#000" fill-opacity=".7" transform="translate(2 52)"><path id="Mouth" d="M40 15c0 7.732 6.268 14 14 14s14-6.268 14-14" transform="matrix(1 0 0 -1 0 44)"/></g>
<g id="Nose/Default" fill-opacity=".16" transform="translate(28 40)"><path id="Nose" d="M16 8c0 4.418 5.373 8 12 8s12-3.582 12-8"/></g>
<g id="Eyes/Cry-😢" transform="translate(0 8)"><circle id="Eye" cx="30" cy="22" r="6" fill="#000" fill-opacity=".6" fill-rule="evenodd"/><path id="Drop" fill="#92d9ff" fill-rule="nonzero" d="M25 27s-6 7.27-6 11.27a6 6 0 1 0 12 0c0-4-6-11.27-6-11.27"/><circle id="Eye" cx="82" cy="22" r="6" fill="#000" fill-opacity=".6" fill-rule="evenodd"/></g>
<g id="Eyebrow/Natural/Flat-Natural" fill-opacity=".6"><path id="Fill-10" d="M38.569 10.702c-4.982.536-9.914.432-14.913.4-3.833-.026-7.736-.413-11.331 1.407-.689.348-4.448 2.436-4.322 3.502.1.852 4.01 2.053 4.714 2.273 3.711 1.161 7.207.644 10.97.286 4.615-.438 9.227-.395 13.845-.696 3.11-.202 7.89-.897 9.297-4.726.424-1.153-.014-3.414-.522-4.642-.202-.488-.744-.656-1.138-.357-1.413 1.073-4.184 2.294-6.6 2.553" transform="rotate(2 27.5 13.5)"/><path id="Fill-10" d="M95.569 10.702c-4.982.536-9.914.432-14.913.4-3.833-.026-7.736-.413-11.331 1.407-.689.348-4.448 2.436-4.322 3.502.1.852 4.01 2.053 4.714 2.273 3.711 1.161 7.207.644 10.97.286 4.615-.438 9.227-.395 13.845-.696 3.11-.202 7.89-.897 9.297-4.726.424-1.153-.014-3.414-.522-4.642-.202-.488-.744-.656-1.138-.357-1.413 1.073-4.184 2.294-6.6 2.553" transform="rotate(178 84.264 0)scale(1 -1)"/></g>
</g><g id="Top" fill-rule="evenodd" stroke-width="1"><defs><path id="topLongHairStraight-path-992" d="M0 0h264v280H0z"/><path id="topLongHairStraight-path-993" d="M133.506 81.335A12 12 0 0 1 140 92v13c0 6.019-4.43 11.002-10.209 11.867-1.743 20.248-14.26 37.416-31.791 45.744V181h4c17.49 0 33.525 6.237 46 16.608V74c0-20.435-8.283-38.935-21.674-52.326S94.435 0 74 0C33.13 0 0 33.13 0 74v183.716c13.57-1.94 24-13.61 24-27.716v-45.577A72 72 0 0 1 46 181h4v-18.389a56.23 56.23 0 0 1-26-25.365v-61.98c9.147-2.975 18.778-7.249 28.342-12.77 15.403-8.894 28.09-19.555 36.724-30.099a87 87 0 0 0 7.044 15.488c8.768 15.186 21.114 26.349 33.89 32.032v.249q.6.1 1.18.26 1.162.484 2.326.91"/></defs><mask id="topLongHairStraight-mask-990" fill="#fff"><use xlink:href="#topLongHairStraight-path-992"/></mask><g id="Top/Long-Hair/Straight" mask="url(#topLongHairStraight-mask-990)"><g fill-rule="evenodd" transform="translate(-1)"><g id="Hair" fill="none" stroke-width="1" transform="translate(59 18)"><mask id="topLongHairStraight-mask-991" fill="#fff"><use xlink:href="#topLongHairStraight-path-993"/></mask><use xlink:href="#topLongHairStraight-path-993" id="Mask-Hair" fill="#944f23"/><g id="Skin/👶🏽-03-Brown" fill="#4A312C" mask="url(#topLongHairStraight-mask-991)"><path id="Color" d="M0 0h264v280H0z"/></g></g><path id="Shadow" fill="#000" fill-opacity=".24" d="M192.506 99.335c4.869 1.773 9.757 2.737 14.494 2.813V92c0-20.435-8.283-38.935-21.674-52.326C198.717 53.065 207 71.565 207 92v123.608C194.525 205.237 178.49 199 161 199h-4v-18.389c17.53-8.328 30.048-25.496 31.791-45.744C194.57 134.002 199 129.02 199 123v-13a12 12 0 0 0-6.494-10.665m-2.326-.91q-.58-.158-1.18-.26v-.248q.59.262 1.18.509M83 155.246a56.23 56.23 0 0 0 26 25.366V199h-4c-7.673 0-15.065 1.2-22 3.423z"/></g></g><g id="Top/_Resources/Kurt" fill="none" stroke-width="1" transform="translate(62 85)"><defs></defs><g id="Kurts" fill-rule="nonzero" transform="translate(5 2)"><path id="It!" fill="#f4f4f4" d="M66 11.111c-11.037 0-12.63-9.084-35.33-10.37C7.987-.283.816 6.449.777 11.11c.037 4.293-1.128 15.45 13.589 28.519 14.772 15.512 29.905 10.252 35.33 5.185C55.134 42.473 61.34 21.46 66 21.48s10.865 20.992 16.306 23.334c5.424 5.067 20.557 10.327 35.33-5.185 14.716-13.069 13.55-24.226 13.588-28.519-.04-4.662-7.21-11.394-29.895-10.37C78.63 2.027 77.037 11.11 66 11.11"/><path id="Did" fill="#2f383b" d="M55.13 21.481c.38-7.658-12.914-15.839-27.177-15.555-14.256.299-16.111 9.453-16.306 12.963-.349 8.133 8.367 26.415 24.459 25.926 16.091-.51 18.803-18.28 19.023-23.334"/><path id="Courtney" fill="#2f383b" d="M120.353 21.481c.38-7.658-12.914-15.839-27.177-15.555-14.255.299-16.11 9.453-16.305 12.963-.35 8.133 8.367 26.415 24.458 25.926 16.092-.51 18.804-18.28 19.024-23.334" transform="matrix(-1 0 0 1 197.224 0)"/></g></g>
</g>
</g></g></g></svg>