<svg viewBox="0 0 264 280" xmlns="http://www.w3.org/2000/svg" xmlns:xlink="http://www.w3.org/1999/xlink"><defs><circle id="shared-path-1" cx="120" cy="120" r="120"/><path id="shared-path-2" d="M12 160c0 66.274 53.726 120 120 120s120-53.726 120-120h12V0H0v160z"/><path id="shared-path-3" d="M124 144.611V163h4c39.765 0 72 32.235 72 72v9H0v-9c0-39.765 32.235-72 72-72h4v-18.389c-17.237-8.189-29.628-24.924-31.695-44.73C38.48 99.058 34 94.052 34 88V74c0-5.946 4.325-10.882 10-11.834V56c0-30.928 25.072-56 56-56s56 25.072 56 56v6.166c5.675.952 10 5.888 10 11.834v14c0 6.052-4.48 11.058-10.305 11.881-2.067 19.806-14.458 36.541-31.695 44.73"/>
</defs><g id="Avataaar" stroke="none" stroke-width="1" fill="none" fill-rule="evenodd"><g transform="translate(0, 0)"><g transform="translate(12, 40)"><mask id="mask-bg" fill="white"><use xlink:href="#shared-path-1"/></mask><use fill="#E6E6E6" xlink:href="#shared-path-1"/><g mask="url(#mask-bg)" fill="#65C9FF"><rect x="0" y="0" width="240" height="240"/></g></g><mask id="mask-clip" fill="white"><use xlink:href="#shared-path-2"/></mask><g mask="url(#mask-clip)"><g id="Body" transform="translate(32 36)"><defs><path id="body-path-3" d="M124 144.611V163h4c39.765 0 72 32.235 72 72v9H0v-9c0-39.765 32.235-72 72-72h4v-18.389c-17.237-8.189-29.628-24.924-31.695-44.73C38.48 99.058 34 94.052 34 88V74c0-5.946 4.325-10.882 10-11.834V56c0-30.928 25.072-56 56-56s56 25.072 56 56v6.166c5.675.952 10 5.888 10 11.834v14c0 6.052-4.48 11.058-10.305 11.881-2.067 19.806-14.458 36.541-31.695 44.73"/></defs><mask id="body-mask-6" fill="#fff"><use xlink:href="#body-path-3"/></mask><use xlink:href="#body-path-3" fill="#d0c6ac"/><g id="Skin/👶🏽-03-Brown" fill="#FD9841" mask="url(#body-mask-6)"><path id="Color" d="M0 0h264v280H0z"/></g><path id="Neck-Shadow" fill="#000" fill-opacity=".1" d="M156 79v23c0 30.928-25.072 56-56 56s-56-25.072-56-56V79v15c0 30.928 25.072 56 56 56s56-25.072 56-56z" mask="url(#body-mask-6)"/></g>
<g id="Clothing/Shirt-Crew-Neck" transform="translate(0 170)"><defs><path id="clotheShirtCrewNeck-path-541" d="M165.96 29.295c36.976 3.03 66.04 34 66.04 71.757V110H32v-8.948c0-38.1 29.592-69.287 67.045-71.832Q99 29.78 99 30.348c0 11.863 14.998 21.48 33.5 21.48S166 42.21 166 30.348q0-.53-.04-1.053"/></defs><mask id="clotheShirtCrewNeck-mask-542" fill="#fff"><use xlink:href="#clotheShirtCrewNeck-path-541"/></mask><use xlink:href="#clotheShirtCrewNeck-path-541" id="Clothes" fill="#e6e6e6" fill-rule="evenodd"/><g id="Color/Palette/Gray-01" fill="#FFDEB5" fill-rule="evenodd" mask="url(#clotheShirtCrewNeck-mask-542)"><path id="🖍Color" d="M0 0h264v110H0z"/></g><g id="Shadowy" fill="#000" fill-opacity=".16" fill-rule="evenodd" stroke-width="1" mask="url(#clotheShirtCrewNeck-mask-542)" opacity=".6"><ellipse id="Hola-👋🏼" cx="40.5" cy="27.848" rx="39.635" ry="26.914" transform="translate(92 4)"/></g></g>
<g transform="translate(76, 82)" fill="#000000"><g id="Mouth/Smile" transform="translate(2 52)"><defs><path id="mouthSmile-path-415" d="M35.118 15.128C36.176 24.62 44.226 32 54 32c9.804 0 17.874-7.426 18.892-16.96.082-.767-.775-2.04-1.85-2.04H37.088c-1.08 0-2.075 1.178-1.97 2.128"/></defs><mask id="mouthSmile-mask-416" fill="#fff"><use xlink:href="#mouthSmile-path-415"/></mask><use xlink:href="#mouthSmile-path-415" id="Mouth" fill="#000" fill-opacity=".7" fill-rule="evenodd"/><rect id="Teeth" width="31" height="16" x="39" y="2" fill="#fff" fill-rule="evenodd" mask="url(#mouthSmile-mask-416)" rx="5"/><g id="Tongue" fill="#ff4f6d" fill-rule="evenodd" stroke-width="1" mask="url(#mouthSmile-mask-416)"><g transform="translate(38 24)"><circle cx="11" cy="11" r="11"/><circle cx="21" cy="11" r="11"/></g></g></g>
<g id="Nose/Default" fill-opacity=".16" transform="translate(28 40)"><path id="Nose" d="M16 8c0 4.418 5.373 8 12 8s12-3.582 12-8"/></g>
<g id="Eyes/Cry-😢" transform="translate(0 8)"><circle id="Eye" cx="30" cy="22" r="6" fill="#000" fill-opacity=".6" fill-rule="evenodd"/><path id="Drop" fill="#92d9ff" fill-rule="nonzero" d="M25 27s-6 7.27-6 11.27a6 6 0 1 0 12 0c0-4-6-11.27-6-11.27"/><circle id="Eye" cx="82" cy="22" r="6" fill="#000" fill-opacity=".6" fill-rule="evenodd"/></g>
<g id="Eyebrow/Natural/Default-Natural" fill-opacity=".6"><path id="Eyebrow" d="M26.04 6.21c-5.762.773-14.747 5.795-13.996 11.608.025.19.313.25.437.09 2.486-3.188 21.712-7.871 28.713-6.893.641.09 1.064-.572.627-.985-3.744-3.535-10.62-4.518-15.782-3.82" transform="rotate(5 27 12)"/><path id="Eyebrow" d="M85.04 6.21c-5.762.773-14.747 5.795-13.996 11.608.025.19.313.25.437.09 2.486-3.188 21.712-7.871 28.713-6.893.641.09 1.064-.572.627-.985-3.744-3.535-10.62-4.518-15.782-3.82" transform="rotate(175 85.476 0)scale(1 -1)"/></g>
</g><g id="Top" fill-rule="evenodd" stroke-width="1"><defs><path id="topLongHairBigHair-path-837" d="M0 0h264v280H0z"/><path id="topLongHairBigHair-path-838" d="M222.385 182.806c-5.374 5.712-10.737 9.322-10.554 15.194.317 11.889 43.608 47.051 5.169 69H16.005c-38.439-21.949 4.852-57.111 5.17-69 .182-5.872-5.18-9.482-10.555-15.194C5.247 177.094-.137 169.28.003 155c.941-29.028 31.369-26.412 31.2-46 .169-19-11.39-26.84 0-63C42.84 9.54 72.917.768 116.003.016V0l.5.008.5-.008v.016c43.086.752 73.163 9.523 84.8 45.984 11.388 36.16-.17 44 0 63-.17 19.588 30.258 16.972 31.2 46 .14 14.28-5.245 22.094-10.618 27.806m-39.501-87.481c-21.52-11.588-39.994-28.18-52.038-47.023C112.764 73.924 76.53 78.535 51.224 94.68A12 12 0 0 0 51 97v13c0 6.019 4.43 11.002 10.209 11.867 1.743 20.248 14.26 37.416 31.791 45.744V186h-4c-39.765 0-72 32.235-72 72v9h200v-9c0-39.765-32.235-72-72-72h-4v-18.389c17.53-8.328 30.048-25.496 31.791-45.744C178.57 121.002 183 116.02 183 110V97q-.001-.853-.116-1.675"/><path id="topLongHairBigHair-path-839" d="M222.385 182.806c-5.374 5.712-10.737 9.322-10.554 15.194.317 11.889 43.608 47.051 5.169 69H16.005c-38.439-21.949 4.852-57.111 5.17-69 .182-5.872-5.18-9.482-10.555-15.194C5.247 177.094-.137 169.28.003 155c.941-29.028 31.369-26.412 31.2-46 .169-19-11.39-26.84 0-63C42.84 9.54 72.917.768 116.003.016V0l.5.008.5-.008v.016c43.086.752 73.163 9.523 84.8 45.984 11.388 36.16-.17 44 0 63-.17 19.588 30.258 16.972 31.2 46 .14 14.28-5.245 22.094-10.618 27.806M93 186h-4c-39.765 0-72 32.235-72 72v9h200v-9c0-39.765-32.235-72-72-72h-4v-46H93z"/></defs><mask id="topLongHairBigHair-mask-835" fill="#fff"><use xlink:href="#topLongHairBigHair-path-837"/></mask><g id="Top/Long-Hair/Big-Hair" mask="url(#topLongHairBigHair-mask-835)"><g fill-rule="evenodd" transform="translate(-1)"><g id="Hair" fill="none" stroke-width="1" transform="translate(16 13)"><mask id="topLongHairBigHair-mask-836" fill="#fff"><use xlink:href="#topLongHairBigHair-path-838"/></mask><use xlink:href="#topLongHairBigHair-path-838" fill="#314756"/><g id="Skin/👶🏽-03-Brown" fill="#000FDB" mask="url(#topLongHairBigHair-mask-836)"><path id="Color" d="M0 0h264v280H0z"/></g></g><g id="Shadow" fill="none" stroke-width="1" transform="translate(16 13)"><mask id="topLongHairBigHair-mask-834" fill="#fff"><use xlink:href="#topLongHairBigHair-path-839"/></mask><path id="Shadow-Mask" fill="#000" fill-opacity=".16" d="M30.099 115.057c-2.374 3.026-5.57 7.471-5.737 7.137 1.873-2.383 3.013-5.182 2.979-8.758.177-18.101-11.904-25.569 0-60.017.669-1.91 1.766-3.715 3.245-5.414-10.343 34.454.783 42.35.617 60.995.02 2.295-.38 4.285-1.104 6.057m172.32-67.052c1.48 1.7 2.577 3.504 3.245 5.414 10.158 29.394 2.852 39.144.6 52.617-.3.805-.069 1.754-.384 2.567-30.673-10.458-58.29-30.043-74.385-52.991-22.784 29.424-73.14 29.761-97.821 55.324.387-.544.754-1.051 1.084-1.49 22.536-29.919 73.489-29.122 96.088-61.144 15.398 24.088 41.818 44.648 71.163 55.625.301-.854.08-1.85.367-2.694 2.108-13.833 8.84-23.926.043-53.228" mask="url(#topLongHairBigHair-mask-834)"/></g><path id="Light" fill="#fff" fill-opacity=".1" d="M50.758 122.446c22.536-29.919 73.489-29.122 96.088-61.144 15.398 24.088 41.818 44.648 71.163 55.625.301-.854.08-1.85.367-2.694 2.155-14.144 9.144-24.378-.573-55.233-11.637-36.46-41.714-45.232-84.8-45.984l-1-.016c-43.086.768-73.163 9.54-84.8 46-11.39 36.16.169 44 0 63 .032 3.753-1.059 6.691-2.85 9.193.183.402 4.153-5.756 6.405-8.747"/></g></g></g>
</g></g></g></svg>